solid Nextion Case 1
facet normal 1.6536243748492745e-22 1.0 -5.290257119169532e-11
  outer loop
    vertex 3606.245758138348 129.2089241885467 36.13847225831223
    vertex 3666.845758135128 129.20892418850448 35.83847225797188
    vertex 3606.2457581383524 129.20892418850448 35.83847225778247
  endloop
endfacet
facet normal 1.6536243748492745e-22 1.0 -5.290257119169532e-11
  outer loop
    vertex 3666.845758135128 129.20892418850448 35.83847225797188
    vertex 3606.245758138348 129.2089241885467 36.13847225831223
    vertex 3666.8457581351245 129.2089241885467 36.13847225850163
  endloop
endfacet
facet normal 1.115527542123582e-22 -1.0 -3.4762436967168894e-11
  outer loop
    vertex 3663.84575813829 171.78325877318412 35.538472259916574
    vertex 3607.0457581383303 171.78325877317369 35.8384722597343
    vertex 3607.0457581383303 171.78325877318412 35.538472259734306
  endloop
endfacet
facet normal 1.115527542123582e-22 -1.0 -3.4762436967168894e-11
  outer loop
    vertex 3607.0457581383303 171.78325877317369 35.8384722597343
    vertex 3663.84575813829 171.78325877318412 35.538472259916574
    vertex 3663.84575813829 171.78325877317369 35.83847225991657
  endloop
endfacet
facet normal 5.344167640483209e-09 0.9999999996429376 2.6723111042078068e-05
  outer loop
    vertex 3607.0457581383303 130.20892418850448 35.83847225897357
    vertex 3663.84575813829 130.2089241885149 35.53847225897356
    vertex 3607.0457581383303 130.2089241885149 35.53847225897356
  endloop
endfacet
facet normal 5.344167640483209e-09 0.9999999996429376 2.6723111042078068e-05
  outer loop
    vertex 3663.84575813829 130.2089241885149 35.53847225897356
    vertex 3607.0457581383303 130.20892418850448 35.83847225897357
    vertex 3663.84575813829 130.20892418850448 35.83847225897357
  endloop
endfacet
facet normal 3.2938843347706624e-20 -1.0 1.5447400395866404e-09
  outer loop
    vertex 3666.8457581383086 172.7832587736371 36.138472259875286
    vertex 3606.2457581383524 172.78325877317369 35.838472261167475
    vertex 3666.845758138291 172.78325877317369 35.83847225987529
  endloop
endfacet
facet normal 3.2938843347706624e-20 -1.0 1.5447400395866404e-09
  outer loop
    vertex 3606.2457581383524 172.78325877317369 35.838472261167475
    vertex 3666.8457581383086 172.7832587736371 36.138472259875286
    vertex 3606.245758138371 172.7832587736371 36.13847226116748
  endloop
endfacet
facet normal 1.0 4.4007251315995457e-23 -2.406371398371476e-12
  outer loop
    vertex 3607.0457581383303 130.2089241885149 35.53847225897356
    vertex 3607.0457581383303 171.78325877317369 35.8384722597343
    vertex 3607.0457581383303 130.20892418850448 35.83847225897357
  endloop
endfacet
facet normal 1.0 4.4007251315995457e-23 -2.406371398371476e-12
  outer loop
    vertex 3607.0457581383303 171.78325877317369 35.8384722597343
    vertex 3607.0457581383303 130.2089241885149 35.53847225897356
    vertex 3607.0457581383303 171.78325877318412 35.538472259734306
  endloop
endfacet
facet normal 5.211729592839299e-12 -4.152951176518395e-11 1.0
  outer loop
    vertex 3606.2457581383524 129.20892418850448 35.83847225778247
    vertex 3607.0457581383303 130.20892418850448 35.83847225897357
    vertex 3606.2457581383524 172.78325877317369 35.838472261167475
  endloop
endfacet
facet normal 5.211729592839299e-12 -4.152951176518395e-11 1.0
  outer loop
    vertex 3607.0457581383303 130.20892418850448 35.83847225897357
    vertex 3606.2457581383524 129.20892418850448 35.83847225778247
    vertex 3666.845758135128 129.20892418850448 35.83847225797188
  endloop
endfacet
facet normal 5.211729592839299e-12 -4.152951176518395e-11 1.0
  outer loop
    vertex 3607.0457581383303 130.20892418850448 35.83847225897357
    vertex 3666.845758135128 129.20892418850448 35.83847225797188
    vertex 3663.84575813829 130.20892418850448 35.83847225897357
  endloop
endfacet
facet normal 5.211729592839299e-12 -4.152951176518395e-11 1.0
  outer loop
    vertex 3663.84575813829 130.20892418850448 35.83847225897357
    vertex 3666.845758135128 129.20892418850448 35.83847225797188
    vertex 3663.84575813829 171.78325877317369 35.83847225991657
  endloop
endfacet
facet normal 5.211729592839299e-12 -4.152951176518395e-11 1.0
  outer loop
    vertex 3606.2457581383524 172.78325877317369 35.838472261167475
    vertex 3607.0457581383303 171.78325877317369 35.8384722597343
    vertex 3666.845758138291 172.78325877317369 35.83847225987529
  endloop
endfacet
facet normal 5.211729592839299e-12 -4.152951176518395e-11 1.0
  outer loop
    vertex 3607.0457581383303 171.78325877317369 35.8384722597343
    vertex 3606.2457581383524 172.78325877317369 35.838472261167475
    vertex 3607.0457581383303 130.20892418850448 35.83847225897357
  endloop
endfacet
facet normal 5.211729592839299e-12 -4.152951176518395e-11 1.0
  outer loop
    vertex 3666.845758138291 172.78325877317369 35.83847225987529
    vertex 3607.0457581383303 171.78325877317369 35.8384722597343
    vertex 3663.84575813829 171.78325877317369 35.83847225991657
  endloop
endfacet
facet normal 5.211729592839299e-12 -4.152951176518395e-11 1.0
  outer loop
    vertex 3666.845758138291 172.78325877317369 35.83847225987529
    vertex 3663.84575813829 171.78325877317369 35.83847225991657
    vertex 3666.845758135128 129.20892418850448 35.83847225797188
  endloop
endfacet
facet normal -1.0 -5.459446614561683e-23 2.4063713991053944e-12
  outer loop
    vertex 3663.84575813829 171.78325877317369 35.83847225991657
    vertex 3663.84575813829 130.2089241885149 35.53847225897356
    vertex 3663.84575813829 130.20892418850448 35.83847225897357
  endloop
endfacet
facet normal -1.0 -5.459446614561683e-23 2.4063713991053944e-12
  outer loop
    vertex 3663.84575813829 130.2089241885149 35.53847225897356
    vertex 3663.84575813829 171.78325877317369 35.83847225991657
    vertex 3663.84575813829 171.78325877318412 35.538472259916574
  endloop
endfacet
facet normal 0.6593458150992155 0.7518398074797258 4.841712847117393e-11
  outer loop
    vertex 3599.083224886972 129.03310090805007 36.4384722580811
    vertex 3599.314516990089 128.8302634452555 43.63866156958591
    vertex 3599.3145158219827 128.83026420194506 36.43847225805516
  endloop
endfacet
facet normal 0.6593458150992155 0.7518398074797258 4.841712847117393e-11
  outer loop
    vertex 3599.314516990089 128.8302634452555 43.63866156958591
    vertex 3599.083224886972 129.03310090805007 36.4384722580811
    vertex 3599.0832260550774 129.03310015136063 43.63866156960983
  endloop
endfacet
facet normal 0.8968727415362039 0.4422886902118726 3.028763488704781e-11
  outer loop
    vertex 3598.709476295968 129.52017955495674 36.43847225811066
    vertex 3598.573414750083 129.79608668833393 43.63866156966077
    vertex 3598.7094774640714 129.52017879826732 43.63866156963898
  endloop
endfacet
facet normal 0.8968727415362039 0.4422886902118726 3.028763488704781e-11
  outer loop
    vertex 3598.573414750083 129.79608668833393 43.63866156966077
    vertex 3598.709476295968 129.52017955495674 36.43847225811066
    vertex 3598.573413581974 129.79608744502355 36.43847225813078
  endloop
endfacet
facet normal 0.9469301294941772 0.32143946530589723 2.3058512362470334e-11
  outer loop
    vertex 3598.573413581974 129.79608744502355 36.43847225813078
    vertex 3598.4745292777466 130.08739389615917 43.63866156967854
    vertex 3598.573414750083 129.79608668833393 43.63866156966077
  endloop
endfacet
facet normal 0.9469301294941772 0.32143946530589723 2.3058512362470334e-11
  outer loop
    vertex 3598.4745292777466 130.08739389615917 43.63866156967854
    vertex 3598.573413581974 129.79608744502355 36.43847225813078
    vertex 3598.4745281096425 130.08739465284864 36.43847225815017
  endloop
endfacet
facet normal 0.9807852804150388 0.19509032195676482 1.5434251192053357e-11
  outer loop
    vertex 3598.4745281096425 130.08739465284864 36.43847225815017
    vertex 3598.4090502883078 130.41657900576826 43.63866156969564
    vertex 3598.4745292777466 130.08739389615917 43.63866156967854
  endloop
endfacet
facet normal 0.9807852804150388 0.19509032195676482 1.5434251192053357e-11
  outer loop
    vertex 3598.4090502883078 130.41657900576826 43.63866156969564
    vertex 3598.4745281096425 130.08739465284864 36.43847225815017
    vertex 3598.4090491202073 130.41657976245781 36.43847225816687
  endloop
endfacet
facet normal 0.9999999999377629 1.1156798645028108e-05 -8.96760815605191e-09
  outer loop
    vertex 3598.4090491202073 130.41657976245781 36.43847225816687
    vertex 3598.4089054780707 143.39608095554158 43.64211002164216
    vertex 3598.4090502883078 130.41657900576826 43.63866156969564
  endloop
endfacet
facet normal 0.9999999999377629 1.1156798645028108e-05 -8.96760815605191e-09
  outer loop
    vertex 3598.4089054780707 143.39608095554158 43.64211002164216
    vertex 3598.4090491202073 130.41657976245781 36.43847225816687
    vertex 3598.4088984691034 143.39622568791546 41.039182316407604
  endloop
endfacet
facet normal 0.9999999999377629 1.1156798645028108e-05 -8.96760815605191e-09
  outer loop
    vertex 3598.4088984691034 143.39622568791546 41.039182316407604
    vertex 3598.4090491202073 130.41657976245781 36.43847225816687
    vertex 3598.408589601151 171.6037807374649 36.4384722584204
  endloop
endfacet
facet normal 0.9999999999377629 1.1156798645028108e-05 -8.96760815605191e-09
  outer loop
    vertex 3598.4088984691034 143.39622568791546 41.039182316407604
    vertex 3598.408589601151 171.6037807374649 36.4384722584204
    vertex 3598.408728885283 158.59621116125652 41.03999045775487
  endloop
endfacet
facet normal 0.9999999999377629 1.1156798645028108e-05 -8.96760815605191e-09
  outer loop
    vertex 3598.408728885283 158.59621116125652 41.03999045775487
    vertex 3598.408589601151 171.6037807374649 36.4384722584204
    vertex 3598.408590769258 171.60377998077536 43.638661569950656
  endloop
endfacet
facet normal 0.9999999999377629 1.1156798645028108e-05 -8.96760815605191e-09
  outer loop
    vertex 3598.408590769258 171.60377998077536 43.638661569950656
    vertex 3598.4087358942515 158.59606642888266 43.6429181629887
    vertex 3598.408728885283 158.59621116125652 41.03999045775487
  endloop
endfacet
facet normal 0.7518398074952201 0.6593458150815475 4.3076317032250914e-11
  outer loop
    vertex 3599.083224886972 129.03310090805007 36.4384722580811
    vertex 3598.880389348966 129.2643910863879 43.638661569632525
    vertex 3599.0832260550774 129.03310015136063 43.63866156960983
  endloop
endfacet
facet normal 0.7518398074952201 0.6593458150815475 4.3076317032250914e-11
  outer loop
    vertex 3598.880389348966 129.2643910863879 43.638661569632525
    vertex 3599.083224886972 129.03310090805007 36.4384722580811
    vertex 3598.880388180861 129.26439184307742 36.43847225810177
  endloop
endfacet
facet normal 0.965925834796582 -0.2588190133520458 -1.244254941929439e-11
  outer loop
    vertex 3598.408589601151 171.6037807374649 36.4384722584204
    vertex 3598.567866085933 172.19820363315395 43.638661573281695
    vertex 3598.408590769258 171.60377998077536 43.638661569950656
  endloop
endfacet
facet normal 0.965925834796582 -0.2588190133520458 -1.244254941929439e-11
  outer loop
    vertex 3598.567866085933 172.19820363315395 43.638661573281695
    vertex 3598.408589601151 171.6037807374649 36.4384722584204
    vertex 3598.5678649178276 172.19820438984377 36.43847226175238
  endloop
endfacet
facet normal 0.8314696123391899 0.5555702329647597 3.699869426607125e-11
  outer loop
    vertex 3598.880388180861 129.26439184307742 36.43847225810177
    vertex 3598.7094774640714 129.52017879826732 43.63866156963898
    vertex 3598.880389348966 129.2643910863879 43.638661569632525
  endloop
endfacet
facet normal 0.8314696123391899 0.5555702329647597 3.699869426607125e-11
  outer loop
    vertex 3598.7094774640714 129.52017879826732 43.63866156963898
    vertex 3598.880388180861 129.26439184307742 36.43847225810177
    vertex 3598.709476295968 129.52017955495674 36.43847225811066
  endloop
endfacet
facet normal 0.555570233034258 0.8314696122927527 5.29296414644138e-11
  outer loop
    vertex 3599.3145158219827 128.83026420194506 36.43847225805516
    vertex 3599.570304701958 128.6593515603357 43.63866156957523
    vertex 3599.5703035338524 128.6593523170252 36.4384722580451
  endloop
endfacet
facet normal 0.555570233034258 0.8314696122927527 5.29296414644138e-11
  outer loop
    vertex 3599.570304701958 128.6593515603357 43.63866156957523
    vertex 3599.3145158219827 128.83026420194506 36.43847225805516
    vertex 3599.314516990089 128.8302634452555 43.63866156958591
  endloop
endfacet
facet normal 0.49999999999300193 -0.866025403788479 -5.157555632571724e-11
  outer loop
    vertex 3674.21062378406 128.26575180531228 43.638661569417465
    vertex 3673.5180609581134 127.8659019024803 35.53847225791538
    vertex 3674.2106226159594 128.2657525620592 35.53847225791123
  endloop
endfacet
facet normal 0.49999999999300193 -0.866025403788479 -5.157555632571724e-11
  outer loop
    vertex 3673.5180609581134 127.8659019024803 35.53847225791538
    vertex 3674.21062378406 128.26575180531228 43.638661569417465
    vertex 3673.5180621262175 127.86590114573333 43.638661569423284
  endloop
endfacet
facet normal 0.2588190450857839 -0.9659258262935531 -5.857359155031389e-11
  outer loop
    vertex 3673.5180621262175 127.86590114573333 43.638661569423284
    vertex 3672.745608798099 127.65892397002706 35.53847225794267
    vertex 3673.5180609581134 127.8659019024803 35.53847225791538
  endloop
endfacet
facet normal 0.2588190450857839 -0.9659258262935531 -5.857359155031389e-11
  outer loop
    vertex 3672.745608798099 127.65892397002706 35.53847225794267
    vertex 3673.5180621262175 127.86590114573333 43.638661569423284
    vertex 3672.7456099662018 127.65892321328006 43.63866156945057
  endloop
endfacet
facet normal -0.9659258348028571 0.2588190133286266 1.2437886482590925e-11
  outer loop
    vertex 3674.6829265878705 130.38839660892384 43.63866157282133
    vertex 3674.5236513516056 129.79397837271182 36.43847225795673
    vertex 3674.523652519712 129.79397761602223 43.63866156948758
  endloop
endfacet
facet normal -0.9659258348028571 0.2588190133286266 1.2437886482590925e-11
  outer loop
    vertex 3674.5236513516056 129.79397837271182 36.43847225795673
    vertex 3674.6829265878705 130.38839660892384 43.63866157282133
    vertex 3674.6829254197655 130.38839736561343 36.43847226129246
  endloop
endfacet
facet normal -0.8660254037700108 0.5000000000249899 2.757413371844636e-11
  outer loop
    vertex 3674.523652519712 129.79397761602223 43.63866156948758
    vertex 3674.2159574331945 129.26103687287645 36.43847225795466
    vertex 3674.2159586013004 129.26103611618706 43.638661569484015
  endloop
endfacet
facet normal -0.8660254037700108 0.5000000000249899 2.757413371844636e-11
  outer loop
    vertex 3674.2159574331945 129.26103687287645 36.43847225795466
    vertex 3674.523652519712 129.79397761602223 43.63866156948758
    vertex 3674.5236513516056 129.79397837271182 36.43847225795673
  endloop
endfacet
facet normal 0.5000000000140518 0.8660254037763259 5.510030626208503e-11
  outer loop
    vertex 3673.5180609515533 174.1262806195294 35.538472261734384
    vertex 3674.2106237714784 173.72642920665572 43.63866157320389
    vertex 3674.210622603378 173.7264299634028 35.538472261696576
  endloop
endfacet
facet normal 0.5000000000140518 0.8660254037763259 5.510030626208503e-11
  outer loop
    vertex 3674.2106237714784 173.72642920665572 43.63866157320389
    vertex 3673.5180609515533 174.1262806195294 35.538472261734384
    vertex 3673.518062119655 174.1262798627826 43.63866157324143
  endloop
endfacet
facet normal 0.7071067811980761 0.7071067811750189 4.6037051343594975e-11
  outer loop
    vertex 3674.7760968290813 173.1609557376801 35.53847226164496
    vertex 3674.2106237714784 173.72642920665572 43.63866157320389
    vertex 3674.7760979971795 173.16095498093293 43.63866157315273
  endloop
endfacet
facet normal 0.7071067811980761 0.7071067811750189 4.6037051343594975e-11
  outer loop
    vertex 3674.2106237714784 173.72642920665572 43.63866157320389
    vertex 3674.7760968290813 173.1609557376801 35.53847226164496
    vertex 3674.210622603378 173.7264299634028 35.538472261696576
  endloop
endfacet
facet normal -0.7071067811689863 0.7071067812041087 4.0831405528602804e-11
  outer loop
    vertex 3673.7808136989033 128.82589121381017 43.63866156947945
    vertex 3674.2159574331945 129.26103687287645 36.43847225795466
    vertex 3673.780812530798 128.82589197049973 36.438472257950366
  endloop
endfacet
facet normal -0.7071067811689863 0.7071067812041087 4.0831405528602804e-11
  outer loop
    vertex 3674.2159574331945 129.26103687287645 36.43847225795466
    vertex 3673.7808136989033 128.82589121381017 43.63866156947945
    vertex 3674.2159586013004 129.26103611618706 43.638661569484015
  endloop
endfacet
facet normal 0.9659258348028483 -0.25881901332865875 -1.2549561041080408e-11
  outer loop
    vertex 3675.175947514269 129.52378846807267 35.538472257938
    vertex 3675.3829265878658 130.29623987232202 43.6386615732898
    vertex 3675.1759486823707 129.52378771132567 43.63866156944499
  endloop
endfacet
facet normal 0.9659258348028483 -0.25881901332865875 -1.2549561041080408e-11
  outer loop
    vertex 3675.3829265878658 130.29623987232202 43.6386615732898
    vertex 3675.175947514269 129.52378846807267 35.538472257938
    vertex 3675.3829254197676 130.296240629069 35.538472261781635
  endloop
endfacet
facet normal -3.131698347890367e-22 -1.0 -3.4564099861531377e-12
  outer loop
    vertex 3668.44575813861 129.35892398606032 38.63847225614496
    vertex 3667.44575813836 129.35892398606802 36.43847225887527
    vertex 3668.44575813836 129.35892398606802 36.43847225878463
  endloop
endfacet
facet normal -3.131698347890367e-22 -1.0 -3.4564099861531377e-12
  outer loop
    vertex 3667.44575813836 129.35892398606802 36.43847225887527
    vertex 3668.44575813861 129.35892398606032 38.63847225614496
    vertex 3667.4457581386096 129.35892398606032 38.63847225623561
  endloop
endfacet
facet normal 2.1609295873387113e-06 -5.3266741059470856e-05 0.9999999985789924
  outer loop
    vertex 3597.7088984690586 143.39622569251566 41.03918231634845
    vertex 3598.408728885283 158.59621116125652 41.03999045775487
    vertex 3597.7087288852426 158.59621116728692 41.0399934831139
  endloop
endfacet
facet normal 2.1609295873387113e-06 -5.3266741059470856e-05 0.9999999985789924
  outer loop
    vertex 3598.408728885283 158.59621116125652 41.03999045775487
    vertex 3597.7088984690586 143.39622569251566 41.03918231634845
    vertex 3598.4088984691034 143.39622568791546 41.039182316407604
  endloop
endfacet
facet normal 8.46318945578835e-21 1.0 5.960135606748226e-11
  outer loop
    vertex 3605.2457581383596 172.63325857022812 36.438472260700095
    vertex 3606.2457581385174 172.633258570097 38.63847226107293
    vertex 3606.245758138359 172.63325857022812 36.4384722605581
  endloop
endfacet
facet normal 8.46318945578835e-21 1.0 5.960135606748226e-11
  outer loop
    vertex 3606.2457581385174 172.633258570097 38.63847226107293
    vertex 3605.2457581383596 172.63325857022812 36.438472260700095
    vertex 3605.245758138517 172.633258570097 38.63847226121493
  endloop
endfacet
facet normal 8.438679832660812e-12 -6.986208483217519e-11 1.0
  outer loop
    vertex 3606.245758138359 128.35892418848127 36.438472258030195
    vertex 3605.2457581383596 129.35892398606802 36.43847225805095
    vertex 3600.466708435634 128.35892420747084 36.438472257990966
  endloop
endfacet
facet normal 8.438679832660812e-12 -6.986208483217519e-11 1.0
  outer loop
    vertex 3605.2457581383596 129.35892398606802 36.43847225805095
    vertex 3606.245758138359 128.35892418848127 36.438472258030195
    vertex 3606.245758138359 129.35892398606802 36.438472258048826
  endloop
endfacet
facet normal 8.438679832660812e-12 -6.986208483217519e-11 1.0
  outer loop
    vertex 3598.4090491202073 130.41657976245781 36.43847225816687
    vertex 3598.5678649178276 172.19820438984377 36.43847226175238
    vertex 3598.408589601151 171.6037807374649 36.4384722584204
  endloop
endfacet
facet normal 8.438679832660812e-12 -6.986208483217519e-11 1.0
  outer loop
    vertex 3598.5678649178276 172.19820438984377 36.43847226175238
    vertex 3598.4090491202073 130.41657976245781 36.43847225816687
    vertex 3598.4745281096425 130.08739465284864 36.43847225815017
  endloop
endfacet
facet normal 8.438679832660812e-12 -6.986208483217519e-11 1.0
  outer loop
    vertex 3598.5678649178276 172.19820438984377 36.43847226175238
    vertex 3598.4745281096425 130.08739465284864 36.43847225815017
    vertex 3598.573413581974 129.79608744502355 36.43847225813078
  endloop
endfacet
facet normal 8.438679832660812e-12 -6.986208483217519e-11 1.0
  outer loop
    vertex 3598.5678649178276 172.19820438984377 36.43847226175238
    vertex 3598.573413581974 129.79608744502355 36.43847225813078
    vertex 3598.875558836225 172.7311458896644 36.43847226175662
  endloop
endfacet
facet normal 8.438679832660812e-12 -6.986208483217519e-11 1.0
  outer loop
    vertex 3598.875558836225 172.7311458896644 36.43847226175662
    vertex 3598.573413581974 129.79608744502355 36.43847225813078
    vertex 3598.709476295968 129.52017955495674 36.43847225811066
  endloop
endfacet
facet normal 8.438679832660812e-12 -6.986208483217519e-11 1.0
  outer loop
    vertex 3598.875558836225 172.7311458896644 36.43847226175662
    vertex 3598.709476295968 129.52017955495674 36.43847225811066
    vertex 3598.880388180861 129.26439184307742 36.43847225810177
  endloop
endfacet
facet normal 8.438679832660812e-12 -6.986208483217519e-11 1.0
  outer loop
    vertex 3598.875558836225 172.7311458896644 36.43847226175662
    vertex 3598.880388180861 129.26439184307742 36.43847225810177
    vertex 3599.3107037386144 173.1662907920509 36.43847226176091
  endloop
endfacet
facet normal 8.438679832660812e-12 -6.986208483217519e-11 1.0
  outer loop
    vertex 3599.3107037386144 173.1662907920509 36.43847226176091
    vertex 3598.880388180861 129.26439184307742 36.43847225810177
    vertex 3599.083224886972 129.03310090805007 36.4384722580811
  endloop
endfacet
facet normal 8.438679832660812e-12 -6.986208483217519e-11 1.0
  outer loop
    vertex 3599.3107037386144 173.1662907920509 36.43847226176091
    vertex 3599.083224886972 129.03310090805007 36.4384722580811
    vertex 3599.3145158219827 128.83026420194506 36.43847225805516
  endloop
endfacet
facet normal 8.438679832660812e-12 -6.986208483217519e-11 1.0
  outer loop
    vertex 3599.3107037386144 173.1662907920509 36.43847226176091
    vertex 3599.3145158219827 128.83026420194506 36.43847225805516
    vertex 3599.8436452261426 173.47398470332317 36.43847226174977
  endloop
endfacet
facet normal 8.438679832660812e-12 -6.986208483217519e-11 1.0
  outer loop
    vertex 3599.8436452261426 173.47398470332317 36.43847226174977
    vertex 3599.3145158219827 128.83026420194506 36.43847225805516
    vertex 3599.5703035338524 128.6593523170252 36.4384722580451
  endloop
endfacet
facet normal 8.438679832660812e-12 -6.986208483217519e-11 1.0
  outer loop
    vertex 3599.8436452261426 173.47398470332317 36.43847226174977
    vertex 3599.5703035338524 128.6593523170252 36.4384722580451
    vertex 3599.8462114239423 128.52328960301563 36.43847225802602
  endloop
endfacet
facet normal 8.438679832660812e-12 -6.986208483217519e-11 1.0
  outer loop
    vertex 3599.8436452261426 173.47398470332317 36.43847226174977
    vertex 3599.8462114239423 128.52328960301563 36.43847225802602
    vertex 3600.438064218503 173.63325879228222 36.43847226172807
  endloop
endfacet
facet normal 8.438679832660812e-12 -6.986208483217519e-11 1.0
  outer loop
    vertex 3600.438064218503 173.63325879228222 36.43847226172807
    vertex 3599.8462114239423 128.52328960301563 36.43847225802602
    vertex 3600.1375186317473 128.42440413068468 36.4384722580086
  endloop
endfacet
facet normal 8.438679832660812e-12 -6.986208483217519e-11 1.0
  outer loop
    vertex 3600.438064218503 173.63325879228222 36.43847226172807
    vertex 3600.1375186317473 128.42440413068468 36.4384722580086
    vertex 3600.466708435634 128.35892420747084 36.438472257990966
  endloop
endfacet
facet normal 8.438679832660812e-12 -6.986208483217519e-11 1.0
  outer loop
    vertex 3600.438064218503 173.63325879228222 36.43847226172807
    vertex 3600.466708435634 128.35892420747084 36.438472257990966
    vertex 3605.2457581383596 172.63325857022812 36.438472260700095
  endloop
endfacet
facet normal 8.438679832660812e-12 -6.986208483217519e-11 1.0
  outer loop
    vertex 3600.438064218503 173.63325879228222 36.43847226172807
    vertex 3605.2457581383596 172.63325857022812 36.438472260700095
    vertex 3606.245758138359 173.63325877315052 36.43847226148123
  endloop
endfacet
facet normal 8.438679832660812e-12 -6.986208483217519e-11 1.0
  outer loop
    vertex 3605.2457581383596 172.63325857022812 36.438472260700095
    vertex 3600.466708435634 128.35892420747084 36.438472257990966
    vertex 3605.2457581383596 129.35892398606802 36.43847225805095
  endloop
endfacet
facet normal 8.438679832660812e-12 -6.986208483217519e-11 1.0
  outer loop
    vertex 3606.245758138359 173.63325877315052 36.43847226148123
    vertex 3605.2457581383596 172.63325857022812 36.438472260700095
    vertex 3606.245758138359 172.63325857022812 36.4384722605581
  endloop
endfacet
facet normal -3.275015745389917e-09 -0.9999999999999316 -3.697863179749388e-07
  outer loop
    vertex 3672.65345322632 173.63325779770116 43.63866156993814
    vertex 3667.445758141653 173.63325857154578 36.43847225896916
    vertex 3672.6534520582168 173.63325855439066 36.43847225840909
  endloop
endfacet
facet normal -3.275015745389917e-09 -0.9999999999999316 -3.697863179749388e-07
  outer loop
    vertex 3667.445758141653 173.63325857154578 36.43847225896916
    vertex 3672.65345322632 173.63325779770116 43.63866156993814
    vertex 3606.245758138359 173.63325877315052 36.43847226148123
  endloop
endfacet
facet normal -3.275015745389917e-09 -0.9999999999999316 -3.697863179749388e-07
  outer loop
    vertex 3606.245758138359 173.63325877315052 36.43847226148123
    vertex 3672.65345322632 173.63325779770116 43.63866156993814
    vertex 3600.438064218503 173.63325879228222 36.43847226172807
  endloop
endfacet
facet normal -3.275015745389917e-09 -0.9999999999999316 -3.697863179749388e-07
  outer loop
    vertex 3600.438064218503 173.63325879228222 36.43847226172807
    vertex 3672.65345322632 173.63325779770116 43.63866156993814
    vertex 3600.4380653866074 173.63325803559266 43.63866157325806
  endloop
endfacet
facet normal -3.275015745389917e-09 -0.9999999999999316 -3.697863179749388e-07
  outer loop
    vertex 3667.445758141653 173.63325857154578 36.43847225896916
    vertex 3606.245758138371 173.63325877363712 36.13847226116748
    vertex 3667.4457581417278 173.6332585715485 36.138472258969166
  endloop
endfacet
facet normal -3.275015745389917e-09 -0.9999999999999316 -3.697863179749388e-07
  outer loop
    vertex 3606.245758138371 173.63325877363712 36.13847226116748
    vertex 3667.445758141653 173.63325857154578 36.43847225896916
    vertex 3606.245758138359 173.63325877315052 36.43847226148123
  endloop
endfacet
facet normal 0.44228869023502304 0.8968727415247872 5.653660167933993e-11
  outer loop
    vertex 3599.5703035338524 128.6593523170252 36.4384722580451
    vertex 3599.846212592048 128.52328884632615 43.63866156955601
    vertex 3599.8462114239423 128.52328960301563 36.43847225802602
  endloop
endfacet
facet normal 0.44228869023502304 0.8968727415247872 5.653660167933993e-11
  outer loop
    vertex 3599.846212592048 128.52328884632615 43.63866156955601
    vertex 3599.5703035338524 128.6593523170252 36.4384722580451
    vertex 3599.570304701958 128.6593515603357 43.63866156957523
  endloop
endfacet
facet normal 7.20614234950195e-11 -5.960135606748226e-11 1.0
  outer loop
    vertex 3606.2457581385174 129.35892398593683 38.63847225856365
    vertex 3605.245758138517 172.633258570097 38.63847226121493
    vertex 3605.245758138517 129.35892398593683 38.638472258565784
  endloop
endfacet
facet normal 7.20614234950195e-11 -5.960135606748226e-11 1.0
  outer loop
    vertex 3605.245758138517 172.633258570097 38.63847226121493
    vertex 3606.2457581385174 129.35892398593683 38.63847225856365
    vertex 3606.2457581385174 172.633258570097 38.63847226107293
  endloop
endfacet
facet normal 3.522748239814917e-12 6.383538133739262e-11 -1.0
  outer loop
    vertex 3597.9155687551765 172.46839429460547 35.53847226177266
    vertex 3597.709049889407 130.34763191317725 35.53847225816382
    vertex 3597.7085885729757 171.6959336369146 35.53847225793006
  endloop
endfacet
facet normal 3.522748239814917e-12 6.383538133739262e-11 -1.0
  outer loop
    vertex 3597.709049889407 130.34763191317725 35.53847225816382
    vertex 3597.9155687551765 172.46839429460547 35.53847226177266
    vertex 3597.7969292400453 129.9058325830266 35.538472258131605
  endloop
endfacet
facet normal 3.522748239814917e-12 6.383538133739262e-11 -1.0
  outer loop
    vertex 3597.7969292400453 129.9058325830266 35.538472258131605
    vertex 3597.9155687551765 172.46839429460547 35.53847226177266
    vertex 3597.925310270282 129.52763426355955 35.53847225811225
  endloop
endfacet
facet normal 3.522748239814917e-12 6.383538133739262e-11 -1.0
  outer loop
    vertex 3597.925310270282 129.52763426355955 35.53847225811225
    vertex 3597.9155687551765 172.46839429460547 35.53847226177266
    vertex 3598.3154194277386 173.1609559748968 35.53847226179098
  endloop
endfacet
facet normal 3.522748239814917e-12 6.383538133739262e-11 -1.0
  outer loop
    vertex 3597.925310270282 129.52763426355955 35.53847225811225
    vertex 3598.3154194277386 173.1609559748968 35.53847226179098
    vertex 3598.101957769509 129.16942857025893 35.53847225808852
  endloop
endfacet
facet normal 3.522748239814917e-12 6.383538133739262e-11 -1.0
  outer loop
    vertex 3598.101957769509 129.16942857025893 35.53847225808852
    vertex 3598.3154194277386 173.1609559748968 35.53847226179098
    vertex 3598.323849250071 128.8373445017164 35.53847225807169
  endloop
endfacet
facet normal 3.522748239814917e-12 6.383538133739262e-11 -1.0
  outer loop
    vertex 3598.323849250071 128.8373445017164 35.53847225807169
    vertex 3598.3154194277386 173.1609559748968 35.53847226179098
    vertex 3598.8808936534588 173.72643020061068 35.5384722618024
  endloop
endfacet
facet normal 3.522748239814917e-12 6.383538133739262e-11 -1.0
  outer loop
    vertex 3598.323849250071 128.8373445017164 35.53847225807169
    vertex 3598.8808936534588 173.72643020061068 35.5384722618024
    vertex 3598.5871880872783 128.53706410842014 35.53847225804751
  endloop
endfacet
facet normal 3.522748239814917e-12 6.383538133739262e-11 -1.0
  outer loop
    vertex 3598.5871880872783 128.53706410842014 35.53847225804751
    vertex 3598.8808936534588 173.72643020061068 35.5384722618024
    vertex 3598.88746848054 128.27372527123228 35.53847225801737
  endloop
endfacet
facet normal 3.522748239814917e-12 6.383538133739262e-11 -1.0
  outer loop
    vertex 3598.88746848054 128.27372527123228 35.53847225801737
    vertex 3598.8808936534588 173.72643020061068 35.5384722618024
    vertex 3599.5734553113257 174.1262808601923 35.5384722617969
  endloop
endfacet
facet normal 3.522748239814917e-12 6.383538133739262e-11 -1.0
  outer loop
    vertex 3598.88746848054 128.27372527123228 35.53847225801737
    vertex 3599.5734553113257 174.1262808601923 35.5384722617969
    vertex 3599.21955254906 128.05183379064331 35.53847225800144
  endloop
endfacet
facet normal 3.522748239814917e-12 6.383538133739262e-11 -1.0
  outer loop
    vertex 3599.21955254906 128.05183379064331 35.53847225800144
    vertex 3599.5734553113257 174.1262808601923 35.5384722617969
    vertex 3599.5777582424116 127.8751862913814 35.53847225798029
  endloop
endfacet
facet normal 3.522748239814917e-12 6.383538133739262e-11 -1.0
  outer loop
    vertex 3599.5777582424116 127.8751862913814 35.53847225798029
    vertex 3599.5734553113257 174.1262808601923 35.5384722617969
    vertex 3600.345907471333 174.33325879264564 35.538472261777144
  endloop
endfacet
facet normal 3.522748239814917e-12 6.383538133739262e-11 -1.0
  outer loop
    vertex 3599.5777582424116 127.8751862913814 35.53847225798029
    vertex 3600.345907471333 174.33325879264564 35.538472261777144
    vertex 3599.955956561843 127.74680526115144 35.53847225796003
  endloop
endfacet
facet normal 3.522748239814917e-12 6.383538133739262e-11 -1.0
  outer loop
    vertex 3599.955956561843 127.74680526115144 35.53847225796003
    vertex 3600.345907471333 174.33325879264564 35.538472261777144
    vertex 3600.3977644521424 127.65892420775698 35.53847225793888
  endloop
endfacet
facet normal 3.522748239814917e-12 6.383538133739262e-11 -1.0
  outer loop
    vertex 3600.3977644521424 127.65892420775698 35.53847225793888
    vertex 3600.345907471333 174.33325879264564 35.538472261777144
    vertex 3607.0457581383303 171.78325877318412 35.538472259734306
  endloop
endfacet
facet normal 3.522748239814917e-12 6.383538133739262e-11 -1.0
  outer loop
    vertex 3607.0457581383303 171.78325877318412 35.538472259734306
    vertex 3600.345907471333 174.33325879264564 35.538472261777144
    vertex 3672.7456088108097 174.33325855414648 35.5384722579655
  endloop
endfacet
facet normal 3.522748239814917e-12 6.383538133739262e-11 -1.0
  outer loop
    vertex 3607.0457581383303 171.78325877318412 35.538472259734306
    vertex 3672.7456088108097 174.33325855414648 35.5384722579655
    vertex 3663.84575813829 171.78325877318412 35.538472259916574
  endloop
endfacet
facet normal 3.522748239814917e-12 6.383538133739262e-11 -1.0
  outer loop
    vertex 3663.84575813829 171.78325877318412 35.538472259916574
    vertex 3672.7456088108097 174.33325855414648 35.5384722579655
    vertex 3663.84575813829 130.2089241885149 35.53847225897356
  endloop
endfacet
facet normal 3.522748239814917e-12 6.383538133739262e-11 -1.0
  outer loop
    vertex 3663.84575813829 130.2089241885149 35.53847225897356
    vertex 3672.7456088108097 174.33325855414648 35.5384722579655
    vertex 3672.745608798099 127.65892397002706 35.53847225794267
  endloop
endfacet
facet normal 3.522748239814917e-12 6.383538133739262e-11 -1.0
  outer loop
    vertex 3672.745608798099 127.65892397002706 35.53847225794267
    vertex 3672.7456088108097 174.33325855414648 35.5384722579655
    vertex 3673.5180609581134 127.8659019024803 35.53847225791538
  endloop
endfacet
facet normal 3.522748239814917e-12 6.383538133739262e-11 -1.0
  outer loop
    vertex 3673.5180609581134 127.8659019024803 35.53847225791538
    vertex 3672.7456088108097 174.33325855414648 35.5384722579655
    vertex 3673.5180609515533 174.1262806195294 35.538472261734384
  endloop
endfacet
facet normal 3.522748239814917e-12 6.383538133739262e-11 -1.0
  outer loop
    vertex 3673.5180609581134 127.8659019024803 35.53847225791538
    vertex 3673.5180609515533 174.1262806195294 35.538472261734384
    vertex 3674.210622603378 173.7264299634028 35.538472261696576
  endloop
endfacet
facet normal 3.522748239814917e-12 6.383538133739262e-11 -1.0
  outer loop
    vertex 3673.5180609581134 127.8659019024803 35.53847225791538
    vertex 3674.210622603378 173.7264299634028 35.538472261696576
    vertex 3674.2106226159594 128.2657525620592 35.53847225791123
  endloop
endfacet
facet normal 3.522748239814917e-12 6.383538133739262e-11 -1.0
  outer loop
    vertex 3674.2106226159594 128.2657525620592 35.53847225791123
    vertex 3674.210622603378 173.7264299634028 35.538472261696576
    vertex 3674.7760968290813 173.1609557376801 35.53847226164496
  endloop
endfacet
facet normal 3.522748239814917e-12 6.383538133739262e-11 -1.0
  outer loop
    vertex 3674.2106226159594 128.2657525620592 35.53847225791123
    vertex 3674.7760968290813 173.1609557376801 35.53847226164496
    vertex 3674.7760968416806 128.83122678775342 35.538472257920894
  endloop
endfacet
facet normal 3.522748239814917e-12 6.383538133739262e-11 -1.0
  outer loop
    vertex 3674.7760968416806 128.83122678775342 35.538472257920894
    vertex 3674.7760968290813 173.1609557376801 35.53847226164496
    vertex 3675.17594748867 172.4683940798134 35.538472261597
  endloop
endfacet
facet normal 3.522748239814917e-12 6.383538133739262e-11 -1.0
  outer loop
    vertex 3674.7760968416806 128.83122678775342 35.538472257920894
    vertex 3675.17594748867 172.4683940798134 35.538472261597
    vertex 3675.175947514269 129.52378846807267 35.538472257938
  endloop
endfacet
facet normal 3.522748239814917e-12 6.383538133739262e-11 -1.0
  outer loop
    vertex 3675.175947514269 129.52378846807267 35.538472257938
    vertex 3675.17594748867 172.4683940798134 35.538472261597
    vertex 3675.3829254204434 171.69594192229152 35.538472261550076
  endloop
endfacet
facet normal 3.522748239814917e-12 6.383538133739262e-11 -1.0
  outer loop
    vertex 3675.175947514269 129.52378846807267 35.538472257938
    vertex 3675.3829254204434 171.69594192229152 35.538472261550076
    vertex 3675.3829254197676 130.296240629069 35.538472261781635
  endloop
endfacet
facet normal 3.522748239814917e-12 6.383538133739262e-11 -1.0
  outer loop
    vertex 3600.3977644521424 127.65892420775698 35.53847225793888
    vertex 3607.0457581383303 130.2089241885149 35.53847225897356
    vertex 3672.745608798099 127.65892397002706 35.53847225794267
  endloop
endfacet
facet normal 3.522748239814917e-12 6.383538133739262e-11 -1.0
  outer loop
    vertex 3607.0457581383303 130.2089241885149 35.53847225897356
    vertex 3600.3977644521424 127.65892420775698 35.53847225793888
    vertex 3607.0457581383303 171.78325877318412 35.538472259734306
  endloop
endfacet
facet normal 3.522748239814917e-12 6.383538133739262e-11 -1.0
  outer loop
    vertex 3672.745608798099 127.65892397002706 35.53847225794267
    vertex 3607.0457581383303 130.2089241885149 35.53847225897356
    vertex 3663.84575813829 130.2089241885149 35.53847225897356
  endloop
endfacet
facet normal 0.8660254037902714 0.49999999998989764 3.38374643106167e-11
  outer loop
    vertex 3675.17594748867 172.4683940798134 35.538472261597
    vertex 3674.7760979971795 173.16095498093293 43.63866157315273
    vertex 3675.1759486567703 172.46839332306615 43.638661573104365
  endloop
endfacet
facet normal 0.8660254037902714 0.49999999998989764 3.38374643106167e-11
  outer loop
    vertex 3674.7760979971795 173.16095498093293 43.63866157315273
    vertex 3675.17594748867 172.4683940798134 35.538472261597
    vertex 3674.7760968290813 173.1609557376801 35.53847226164496
  endloop
endfacet
facet normal -1.2672766512420893e-22 -1.0 -5.960135606748226e-11
  outer loop
    vertex 3606.2457581385174 129.35892398593683 38.63847225856365
    vertex 3605.2457581383596 129.35892398606802 36.43847225805095
    vertex 3606.245758138359 129.35892398606802 36.438472258048826
  endloop
endfacet
facet normal -1.2672766512420893e-22 -1.0 -5.960135606748226e-11
  outer loop
    vertex 3605.2457581383596 129.35892398606802 36.43847225805095
    vertex 3606.2457581385174 129.35892398593683 38.63847225856365
    vertex 3605.245758138517 129.35892398593683 38.638472258565784
  endloop
endfacet
facet normal 1.0 3.3238139291133827e-22 -1.1392946586140243e-10
  outer loop
    vertex 3668.44575813836 129.35892398606802 36.43847225878463
    vertex 3668.44575813861 172.6332585702205 38.638472256271214
    vertex 3668.44575813861 129.35892398606032 38.63847225614496
  endloop
endfacet
facet normal 1.0 3.3238139291133827e-22 -1.1392946586140243e-10
  outer loop
    vertex 3668.44575813861 172.6332585702205 38.638472256271214
    vertex 3668.44575813836 129.35892398606802 36.43847225878463
    vertex 3668.44575813836 172.63325857022812 36.43847225891088
  endloop
endfacet
facet normal -1.0 -4.411416222073869e-21 7.20614234950195e-11
  outer loop
    vertex 3605.245758138517 172.633258570097 38.63847226121493
    vertex 3605.2457581383596 129.35892398606802 36.43847225805095
    vertex 3605.245758138517 129.35892398593683 38.638472258565784
  endloop
endfacet
facet normal -1.0 -4.411416222073869e-21 7.20614234950195e-11
  outer loop
    vertex 3605.2457581383596 129.35892398606802 36.43847225805095
    vertex 3605.245758138517 172.633258570097 38.63847226121493
    vertex 3605.2457581383596 172.63325857022812 36.438472260700095
  endloop
endfacet
facet normal -0.19509032203222354 -0.980785280400029 -6.108054038351553e-11
  outer loop
    vertex 3600.397765620243 127.65892345100998 43.63866156944718
    vertex 3599.955956561843 127.74680526115144 35.53847225796003
    vertex 3600.3977644521424 127.65892420775698 35.53847225793888
  endloop
endfacet
facet normal -0.19509032203222354 -0.980785280400029 -6.108054038351553e-11
  outer loop
    vertex 3599.955956561843 127.74680526115144 35.53847225796003
    vertex 3600.397765620243 127.65892345100998 43.63866156944718
    vertex 3599.955957729943 127.7468045044045 43.63866156946635
  endloop
endfacet
facet normal -0.9659258262969378 -0.258819045073152 -1.9291898983078508e-11
  outer loop
    vertex 3674.5236524999573 172.19820340824552 43.638661573107065
    vertex 3674.6829254204376 171.6037851739362 36.43847226154707
    vertex 3674.682926588544 171.60378441724646 43.638661573077194
  endloop
endfacet
facet normal -0.9659258262969378 -0.258819045073152 -1.9291898983078508e-11
  outer loop
    vertex 3674.6829254204376 171.6037851739362 36.43847226154707
    vertex 3674.5236524999573 172.19820340824552 43.638661573107065
    vertex 3674.5236513318555 172.19820416493494 36.438472261577076
  endloop
endfacet
facet normal 3.2652897697641675e-09 0.9999999999999316 3.697800124875234e-07
  outer loop
    vertex 3600.466709603739 128.35892345078128 43.63866156951919
    vertex 3606.245758138359 128.35892418848127 36.438472258030195
    vertex 3600.466708435634 128.35892420747084 36.438472257990966
  endloop
endfacet
facet normal 3.2652897697641675e-09 0.9999999999999316 3.697800124875234e-07
  outer loop
    vertex 3606.245758138359 128.35892418848127 36.438472258030195
    vertex 3600.466709603739 128.35892345078128 43.63866156951919
    vertex 3667.44575813836 128.35892398738238 36.43847225839488
  endloop
endfacet
facet normal 3.2652897697641675e-09 0.9999999999999316 3.697800124875234e-07
  outer loop
    vertex 3667.44575813836 128.35892398738238 36.43847225839488
    vertex 3672.653453219027 128.35892321358074 43.63866156951997
    vertex 3672.6534520509226 128.35892397027027 36.43847225798944
  endloop
endfacet
facet normal 3.2652897697641675e-09 0.9999999999999316 3.697800124875234e-07
  outer loop
    vertex 3672.653453219027 128.35892321358074 43.63866156951997
    vertex 3667.44575813836 128.35892398738238 36.43847225839488
    vertex 3600.466709603739 128.35892345078128 43.63866156951919
  endloop
endfacet
facet normal 3.2652897697641675e-09 0.9999999999999316 3.697800124875234e-07
  outer loop
    vertex 3606.245758138359 128.35892418848127 36.438472258030195
    vertex 3667.4457581384336 128.35892398738514 36.138472258394884
    vertex 3606.245758138348 128.35892418854667 36.138472258246196
  endloop
endfacet
facet normal 3.2652897697641675e-09 0.9999999999999316 3.697800124875234e-07
  outer loop
    vertex 3667.4457581384336 128.35892398738514 36.138472258394884
    vertex 3606.245758138359 128.35892418848127 36.438472258030195
    vertex 3667.44575813836 128.35892398738238 36.43847225839488
  endloop
endfacet
facet normal -1.9370221488417652e-10 -4.139103322620545e-11 1.0
  outer loop
    vertex 3672.6534520509226 128.35892397027027 36.43847225798944
    vertex 3667.44575813836 129.35892398606802 36.43847225887527
    vertex 3667.44575813836 128.35892398738238 36.43847225839488
  endloop
endfacet
facet normal -1.9370221488417652e-10 -4.139103322620545e-11 1.0
  outer loop
    vertex 3667.44575813836 129.35892398606802 36.43847225887527
    vertex 3672.6534520509226 128.35892397027027 36.43847225798944
    vertex 3668.44575813836 129.35892398606802 36.43847225878463
  endloop
endfacet
facet normal -1.9370221488417652e-10 -4.139103322620545e-11 1.0
  outer loop
    vertex 3668.44575813836 129.35892398606802 36.43847225878463
    vertex 3672.6534520509226 128.35892397027027 36.43847225798944
    vertex 3668.44575813836 172.63325857022812 36.43847225891088
  endloop
endfacet
facet normal -1.9370221488417652e-10 -4.139103322620545e-11 1.0
  outer loop
    vertex 3668.44575813836 172.63325857022812 36.43847225891088
    vertex 3667.445758141653 173.63325857154578 36.43847225896916
    vertex 3667.44575813836 172.63325857022812 36.43847225904817
  endloop
endfacet
facet normal -1.9370221488417652e-10 -4.139103322620545e-11 1.0
  outer loop
    vertex 3667.445758141653 173.63325857154578 36.43847225896916
    vertex 3668.44575813836 172.63325857022812 36.43847225891088
    vertex 3672.6534520582168 173.63325855439066 36.43847225840909
  endloop
endfacet
facet normal -1.9370221488417652e-10 -4.139103322620545e-11 1.0
  outer loop
    vertex 3672.6534520582168 173.63325855439066 36.43847225840909
    vertex 3668.44575813836 172.63325857022812 36.43847225891088
    vertex 3672.6534520509226 128.35892397027027 36.43847225798944
  endloop
endfacet
facet normal -1.9370221488417652e-10 -4.139103322620545e-11 1.0
  outer loop
    vertex 3672.6534520582168 173.63325855439066 36.43847225840909
    vertex 3672.6534520509226 128.35892397027027 36.43847225798944
    vertex 3673.2478710432883 128.5181980592293 36.43847225796395
  endloop
endfacet
facet normal -1.9370221488417652e-10 -4.139103322620545e-11 1.0
  outer loop
    vertex 3672.6534520582168 173.63325855439066 36.43847225840909
    vertex 3673.2478710432883 128.5181980592293 36.43847225796395
    vertex 3673.24787103399 173.47398446423918 36.43847226168852
  endloop
endfacet
facet normal -1.9370221488417652e-10 -4.139103322620545e-11 1.0
  outer loop
    vertex 3673.24787103399 173.47398446423918 36.43847226168852
    vertex 3673.2478710432883 128.5181980592293 36.43847225796395
    vertex 3673.7808125181955 173.16629055485723 36.438472261655804
  endloop
endfacet
facet normal -1.9370221488417652e-10 -4.139103322620545e-11 1.0
  outer loop
    vertex 3673.7808125181955 173.16629055485723 36.438472261655804
    vertex 3673.2478710432883 128.5181980592293 36.43847225796395
    vertex 3673.780812530798 128.82589197049973 36.438472257950366
  endloop
endfacet
facet normal -1.9370221488417652e-10 -4.139103322620545e-11 1.0
  outer loop
    vertex 3673.7808125181955 173.16629055485723 36.438472261655804
    vertex 3673.780812530798 128.82589197049973 36.438472257950366
    vertex 3674.2159574205784 172.73114565246058 36.438472261612134
  endloop
endfacet
facet normal -1.9370221488417652e-10 -4.139103322620545e-11 1.0
  outer loop
    vertex 3674.2159574205784 172.73114565246058 36.438472261612134
    vertex 3673.780812530798 128.82589197049973 36.438472257950366
    vertex 3674.2159574331945 129.26103687287645 36.43847225795466
  endloop
endfacet
facet normal -1.9370221488417652e-10 -4.139103322620545e-11 1.0
  outer loop
    vertex 3674.2159574205784 172.73114565246058 36.438472261612134
    vertex 3674.2159574331945 129.26103687287645 36.43847225795466
    vertex 3674.5236513318555 172.19820416493494 36.438472261577076
  endloop
endfacet
facet normal -1.9370221488417652e-10 -4.139103322620545e-11 1.0
  outer loop
    vertex 3674.5236513318555 172.19820416493494 36.438472261577076
    vertex 3674.2159574331945 129.26103687287645 36.43847225795466
    vertex 3674.5236513516056 129.79397837271182 36.43847225795673
  endloop
endfacet
facet normal -1.9370221488417652e-10 -4.139103322620545e-11 1.0
  outer loop
    vertex 3674.5236513318555 172.19820416493494 36.438472261577076
    vertex 3674.5236513516056 129.79397837271182 36.43847225795673
    vertex 3674.6829254204376 171.6037851739362 36.43847226154707
  endloop
endfacet
facet normal -1.9370221488417652e-10 -4.139103322620545e-11 1.0
  outer loop
    vertex 3674.6829254204376 171.6037851739362 36.43847226154707
    vertex 3674.5236513516056 129.79397837271182 36.43847225795673
    vertex 3674.6829254197655 130.38839736561343 36.43847226129246
  endloop
endfacet
facet normal -8.873745639542567e-09 -0.9999999982049792 -5.991695581368527e-05
  outer loop
    vertex 3598.4087358942515 158.59606642888266 43.6429181629887
    vertex 3597.7087288852426 158.59621116728692 41.0399934831139
    vertex 3598.408728885283 158.59621116125652 41.03999045775487
  endloop
endfacet
facet normal -8.873745639542567e-09 -0.9999999982049792 -5.991695581368527e-05
  outer loop
    vertex 3597.7087288852426 158.59621116728692 41.0399934831139
    vertex 3598.4087358942515 158.59606642888266 43.6429181629887
    vertex 3597.70873589421 158.596066434913 43.642921188350535
  endloop
endfacet
facet normal -3.28592986490611e-09 -1.0 -6.157945345990203e-11
  outer loop
    vertex 3672.745608798099 127.65892397002706 35.53847225794267
    vertex 3600.397765620243 127.65892345100998 43.63866156944718
    vertex 3600.3977644521424 127.65892420775698 35.53847225793888
  endloop
endfacet
facet normal -3.28592986490611e-09 -1.0 -6.157945345990203e-11
  outer loop
    vertex 3600.397765620243 127.65892345100998 43.63866156944718
    vertex 3672.745608798099 127.65892397002706 35.53847225794267
    vertex 3672.7456099662018 127.65892321328006 43.63866156945057
  endloop
endfacet
facet normal -1.0 7.274448949768838e-11 1.3235042646812938e-11
  outer loop
    vertex 3666.8457581351245 129.2089241885467 36.13847225850163
    vertex 3666.845758138291 172.78325877317369 35.83847225987529
    vertex 3666.845758135128 129.20892418850448 35.83847225797188
  endloop
endfacet
facet normal -1.0 7.274448949768838e-11 1.3235042646812938e-11
  outer loop
    vertex 3666.845758138291 172.78325877317369 35.83847225987529
    vertex 3666.8457581351245 129.2089241885467 36.13847225850163
    vertex 3666.8457581383086 172.7832587736371 36.138472259875286
  endloop
endfacet
facet normal 1.0 -1.4684009976065126e-13 -5.7726250172344674e-11
  outer loop
    vertex 3606.2457581383524 172.78325877317369 35.838472261167475
    vertex 3606.245758138348 129.2089241885467 36.13847225831223
    vertex 3606.2457581383524 129.20892418850448 35.83847225778247
  endloop
endfacet
facet normal 1.0 -1.4684009976065126e-13 -5.7726250172344674e-11
  outer loop
    vertex 3606.245758138348 129.2089241885467 36.13847225831223
    vertex 3606.2457581383524 172.78325877317369 35.838472261167475
    vertex 3606.245758138359 129.35892398606802 36.438472258048826
  endloop
endfacet
facet normal 1.0 -1.4684009976065126e-13 -5.7726250172344674e-11
  outer loop
    vertex 3606.245758138359 129.35892398606802 36.438472258048826
    vertex 3606.2457581383524 172.78325877317369 35.838472261167475
    vertex 3606.245758138359 172.63325857022812 36.4384722605581
  endloop
endfacet
facet normal 1.0 -1.4684009976065126e-13 -5.7726250172344674e-11
  outer loop
    vertex 3606.245758138359 129.35892398606802 36.438472258048826
    vertex 3606.245758138359 172.63325857022812 36.4384722605581
    vertex 3606.2457581385174 172.633258570097 38.63847226107293
  endloop
endfacet
facet normal 1.0 -1.4684009976065126e-13 -5.7726250172344674e-11
  outer loop
    vertex 3606.245758138359 172.63325857022812 36.4384722605581
    vertex 3606.2457581383524 172.78325877317369 35.838472261167475
    vertex 3606.245758138371 172.7832587736371 36.13847226116748
  endloop
endfacet
facet normal 1.0 -1.4684009976065126e-13 -5.7726250172344674e-11
  outer loop
    vertex 3606.245758138359 172.63325857022812 36.4384722605581
    vertex 3606.245758138371 172.7832587736371 36.13847226116748
    vertex 3606.245758138359 173.63325877315052 36.43847226148123
  endloop
endfacet
facet normal 1.0 -1.4684009976065126e-13 -5.7726250172344674e-11
  outer loop
    vertex 3606.245758138359 173.63325877315052 36.43847226148123
    vertex 3606.245758138371 172.7832587736371 36.13847226116748
    vertex 3606.245758138371 173.63325877363712 36.13847226116748
  endloop
endfacet
facet normal 1.0 -1.4684009976065126e-13 -5.7726250172344674e-11
  outer loop
    vertex 3606.2457581385174 172.633258570097 38.63847226107293
    vertex 3606.2457581385174 129.35892398593683 38.63847225856365
    vertex 3606.245758138359 129.35892398606802 36.438472258048826
  endloop
endfacet
facet normal 1.0 -1.4684009976065126e-13 -5.7726250172344674e-11
  outer loop
    vertex 3606.245758138348 128.35892418854667 36.138472258246196
    vertex 3606.245758138359 129.35892398606802 36.438472258048826
    vertex 3606.245758138359 128.35892418848127 36.438472258030195
  endloop
endfacet
facet normal 1.0 -1.4684009976065126e-13 -5.7726250172344674e-11
  outer loop
    vertex 3606.245758138359 129.35892398606802 36.438472258048826
    vertex 3606.245758138348 128.35892418854667 36.138472258246196
    vertex 3606.245758138348 129.2089241885467 36.13847225831223
  endloop
endfacet
facet normal 1.0 -1.635977360022704e-11 3.5075553572738727e-12
  outer loop
    vertex 3675.3829254197676 130.296240629069 35.538472261781635
    vertex 3675.3829265885447 171.6959411655442 43.63866157305717
    vertex 3675.3829265878658 130.29623987232202 43.6386615732898
  endloop
endfacet
facet normal 1.0 -1.635977360022704e-11 3.5075553572738727e-12
  outer loop
    vertex 3675.3829265885447 171.6959411655442 43.63866157305717
    vertex 3675.3829254197676 130.296240629069 35.538472261781635
    vertex 3675.3829254204434 171.69594192229152 35.538472261550076
  endloop
endfacet
facet normal 0.9659258262969943 0.2588190450729405 1.933160333399666e-11
  outer loop
    vertex 3675.3829254204434 171.69594192229152 35.538472261550076
    vertex 3675.1759486567703 172.46839332306615 43.638661573104365
    vertex 3675.3829265885447 171.6959411655442 43.63866157305717
  endloop
endfacet
facet normal 0.9659258262969943 0.2588190450729405 1.933160333399666e-11
  outer loop
    vertex 3675.1759486567703 172.46839332306615 43.638661573104365
    vertex 3675.3829254204434 171.69594192229152 35.538472261550076
    vertex 3675.17594748867 172.4683940798134 35.538472261597
  endloop
endfacet
facet normal 6.571806359018484e-09 0.9999999982049792 5.99169558192806e-05
  outer loop
    vertex 3597.708905478026 143.39608096014186 43.64211002158382
    vertex 3598.4088984691034 143.39622568791546 41.039182316407604
    vertex 3597.7088984690586 143.39622569251566 41.03918231634845
  endloop
endfacet
facet normal 6.571806359018484e-09 0.9999999982049792 5.99169558192806e-05
  outer loop
    vertex 3598.4088984691034 143.39622568791546 41.039182316407604
    vertex 3597.708905478026 143.39608096014186 43.64211002158382
    vertex 3598.4089054780707 143.39608095554158 43.64211002164216
  endloop
endfacet
facet normal 4.744040522518517e-22 1.0 3.4564099861531377e-12
  outer loop
    vertex 3667.44575813836 172.63325857022812 36.43847225904817
    vertex 3668.44575813861 172.6332585702205 38.638472256271214
    vertex 3668.44575813836 172.63325857022812 36.43847225891088
  endloop
endfacet
facet normal 4.744040522518517e-22 1.0 3.4564099861531377e-12
  outer loop
    vertex 3668.44575813861 172.6332585702205 38.638472256271214
    vertex 3667.44575813836 172.63325857022812 36.43847225904817
    vertex 3667.4457581386096 172.6332585702205 38.638472256408505
  endloop
endfacet
facet normal 1.4418389670496406e-11 -3.6548320762626176e-11 1.0
  outer loop
    vertex 3667.4457581384336 128.35892398738514 36.138472258394884
    vertex 3606.245758138348 129.2089241885467 36.13847225831223
    vertex 3606.245758138348 128.35892418854667 36.138472258246196
  endloop
endfacet
facet normal 1.4418389670496406e-11 -3.6548320762626176e-11 1.0
  outer loop
    vertex 3606.245758138348 129.2089241885467 36.13847225831223
    vertex 3667.4457581384336 128.35892398738514 36.138472258394884
    vertex 3666.8457581351245 129.2089241885467 36.13847225850163
  endloop
endfacet
facet normal 1.4418389670496406e-11 -3.6548320762626176e-11 1.0
  outer loop
    vertex 3666.8457581351245 129.2089241885467 36.13847225850163
    vertex 3667.4457581384336 128.35892398738514 36.138472258394884
    vertex 3666.8457581383086 172.7832587736371 36.138472259875286
  endloop
endfacet
facet normal 1.4418389670496406e-11 -3.6548320762626176e-11 1.0
  outer loop
    vertex 3666.8457581383086 172.7832587736371 36.138472259875286
    vertex 3606.245758138371 173.63325877363712 36.13847226116748
    vertex 3606.245758138371 172.7832587736371 36.13847226116748
  endloop
endfacet
facet normal 1.4418389670496406e-11 -3.6548320762626176e-11 1.0
  outer loop
    vertex 3606.245758138371 173.63325877363712 36.13847226116748
    vertex 3666.8457581383086 172.7832587736371 36.138472259875286
    vertex 3667.4457581417278 173.6332585715485 36.138472258969166
  endloop
endfacet
facet normal 1.4418389670496406e-11 -3.6548320762626176e-11 1.0
  outer loop
    vertex 3667.4457581417278 173.6332585715485 36.138472258969166
    vertex 3666.8457581383086 172.7832587736371 36.138472259875286
    vertex 3667.4457581384336 128.35892398738514 36.138472258394884
  endloop
endfacet
facet normal 0.8660254037768031 -0.5000000000132251 -2.7584097970092332e-11
  outer loop
    vertex 3598.5678649178276 172.19820438984377 36.43847226175238
    vertex 3598.8755600043287 172.7311451329749 43.63866157328819
    vertex 3598.567866085933 172.19820363315395 43.638661573281695
  endloop
endfacet
facet normal 0.8660254037768031 -0.5000000000132251 -2.7584097970092332e-11
  outer loop
    vertex 3598.8755600043287 172.7311451329749 43.63866157328819
    vertex 3598.5678649178276 172.19820438984377 36.43847226175238
    vertex 3598.875558836225 172.7311458896644 36.43847226175662
  endloop
endfacet
facet normal 0.7071067811819731 -0.707106781191122 -4.0844880860564114e-11
  outer loop
    vertex 3599.3107037386144 173.1662907920509 36.43847226176091
    vertex 3598.8755600043287 172.7311451329749 43.63866157328819
    vertex 3598.875558836225 172.7311458896644 36.43847226175662
  endloop
endfacet
facet normal 0.7071067811819731 -0.707106781191122 -4.0844880860564114e-11
  outer loop
    vertex 3598.8755600043287 172.7311451329749 43.63866157328819
    vertex 3599.3107037386144 173.1662907920509 36.43847226176091
    vertex 3599.3107049067185 173.16629003536133 43.638661573290676
  endloop
endfacet
facet normal -1.0 1.636493366698182e-11 -3.5457886626844015e-12
  outer loop
    vertex 3674.682926588544 171.60378441724646 43.638661573077194
    vertex 3674.6829254197655 130.38839736561343 36.43847226129246
    vertex 3674.6829265878705 130.38839660892384 43.63866157282133
  endloop
endfacet
facet normal -1.0 1.636493366698182e-11 -3.5457886626844015e-12
  outer loop
    vertex 3674.6829254197655 130.38839736561343 36.43847226129246
    vertex 3674.682926588544 171.60378441724646 43.638661573077194
    vertex 3674.6829254204376 171.6037851739362 36.43847226154707
  endloop
endfacet
facet normal 0.8660254037700291 -0.5000000000249584 -2.7752227369384043e-11
  outer loop
    vertex 3674.7760968416806 128.83122678775342 35.538472257920894
    vertex 3675.1759486823707 129.52378771132567 43.63866156944499
    vertex 3674.776098009781 128.83122603100642 43.63866156942839
  endloop
endfacet
facet normal 0.8660254037700291 -0.5000000000249584 -2.7752227369384043e-11
  outer loop
    vertex 3675.1759486823707 129.52378771132567 43.63866156944499
    vertex 3674.7760968416806 128.83122678775342 35.538472257920894
    vertex 3675.175947514269 129.52378846807267 35.538472257938
  endloop
endfacet
facet normal -0.4999999999929925 0.8660254037884846 5.130488395231363e-11
  outer loop
    vertex 3673.2478710432883 128.5181980592293 36.43847225796395
    vertex 3673.7808136989033 128.82589121381017 43.63866156947945
    vertex 3673.780812530798 128.82589197049973 36.438472257950366
  endloop
endfacet
facet normal -0.4999999999929925 0.8660254037884846 5.130488395231363e-11
  outer loop
    vertex 3673.7808136989033 128.82589121381017 43.63866156947945
    vertex 3673.2478710432883 128.5181980592293 36.43847225796395
    vertex 3673.2478722113915 128.5181973025398 43.63866156949394
  endloop
endfacet
facet normal -0.3214394653137525 -0.9469301294915106 -5.943909557349187e-11
  outer loop
    vertex 3599.955957729943 127.7468045044045 43.63866156946635
    vertex 3599.5777582424116 127.8751862913814 35.53847225798029
    vertex 3599.955956561843 127.74680526115144 35.53847225796003
  endloop
endfacet
facet normal -0.3214394653137525 -0.9469301294915106 -5.943909557349187e-11
  outer loop
    vertex 3599.5777582424116 127.8751862913814 35.53847225798029
    vertex 3599.955957729943 127.7468045044045 43.63866156946635
    vertex 3599.5777594105125 127.87518553463444 43.63866156948733
  endloop
endfacet
facet normal 0.7071067811688334 -0.7071067812042617 -4.106346989632508e-11
  outer loop
    vertex 3674.7760968416806 128.83122678775342 35.538472257920894
    vertex 3674.21062378406 128.26575180531228 43.638661569417465
    vertex 3674.2106226159594 128.2657525620592 35.53847225791123
  endloop
endfacet
facet normal 0.7071067811688334 -0.7071067812042617 -4.106346989632508e-11
  outer loop
    vertex 3674.21062378406 128.26575180531228 43.638661569417465
    vertex 3674.7760968416806 128.83122678775342 35.538472257920894
    vertex 3674.776098009781 128.83122603100642 43.63866156942839
  endloop
endfacet
facet normal 0.19509032203225588 0.9807852804000226 6.08029082995263e-11
  outer loop
    vertex 3600.1375186317473 128.42440413068468 36.4384722580086
    vertex 3600.466709603739 128.35892345078128 43.63866156951919
    vertex 3600.466708435634 128.35892420747084 36.438472257990966
  endloop
endfacet
facet normal 0.19509032203225588 0.9807852804000226 6.08029082995263e-11
  outer loop
    vertex 3600.466709603739 128.35892345078128 43.63866156951919
    vertex 3600.1375186317473 128.42440413068468 36.4384722580086
    vertex 3600.137519799851 128.42440337399526 43.63866156953769
  endloop
endfacet
facet normal -0.25881904508569065 0.9659258262935779 5.828283454850541e-11
  outer loop
    vertex 3672.6534520509226 128.35892397027027 36.43847225798944
    vertex 3673.2478722113915 128.5181973025398 43.63866156949394
    vertex 3673.2478710432883 128.5181980592293 36.43847225796395
  endloop
endfacet
facet normal -0.25881904508569065 0.9659258262935779 5.828283454850541e-11
  outer loop
    vertex 3673.2478722113915 128.5181973025398 43.63866156949394
    vertex 3672.6534520509226 128.35892397027027 36.43847225798944
    vertex 3672.653453219027 128.35892321358074 43.63866156951997
  endloop
endfacet
facet normal -1.0 2.972253429291647e-11 -2.742769489177656e-10
  outer loop
    vertex 3667.4457581386096 172.6332585702205 38.638472256408505
    vertex 3667.44575813836 129.35892398606802 36.43847225887527
    vertex 3667.4457581386096 129.35892398606032 38.63847225623561
  endloop
endfacet
facet normal -1.0 2.972253429291647e-11 -2.742769489177656e-10
  outer loop
    vertex 3667.44575813836 129.35892398606802 36.43847225887527
    vertex 3667.4457581384336 128.35892398738514 36.138472258394884
    vertex 3667.44575813836 128.35892398738238 36.43847225839488
  endloop
endfacet
facet normal -1.0 2.972253429291647e-11 -2.742769489177656e-10
  outer loop
    vertex 3667.4457581384336 128.35892398738514 36.138472258394884
    vertex 3667.44575813836 129.35892398606802 36.43847225887527
    vertex 3667.4457581417278 173.6332585715485 36.138472258969166
  endloop
endfacet
facet normal -1.0 2.972253429291647e-11 -2.742769489177656e-10
  outer loop
    vertex 3667.4457581417278 173.6332585715485 36.138472258969166
    vertex 3667.44575813836 129.35892398606802 36.43847225887527
    vertex 3667.44575813836 172.63325857022812 36.43847225904817
  endloop
endfacet
facet normal -1.0 2.972253429291647e-11 -2.742769489177656e-10
  outer loop
    vertex 3667.44575813836 172.63325857022812 36.43847225904817
    vertex 3667.44575813836 129.35892398606802 36.43847225887527
    vertex 3667.4457581386096 172.6332585702205 38.638472256408505
  endloop
endfacet
facet normal -1.0 2.972253429291647e-11 -2.742769489177656e-10
  outer loop
    vertex 3667.4457581417278 173.6332585715485 36.138472258969166
    vertex 3667.44575813836 172.63325857022812 36.43847225904817
    vertex 3667.445758141653 173.63325857154578 36.43847225896916
  endloop
endfacet
facet normal 5.840646656263271e-06 -3.7813023480340056e-06 0.9999999999757945
  outer loop
    vertex 3597.70873589421 158.596066434913 43.642921188350535
    vertex 3597.9155699232756 172.46839353785845 43.638661573280835
    vertex 3597.7085897410775 171.69593288016748 43.638661569438774
  endloop
endfacet
facet normal 5.840646656263271e-06 -3.7813023480340056e-06 0.9999999999757945
  outer loop
    vertex 3597.9155699232756 172.46839353785845 43.638661573280835
    vertex 3597.70873589421 158.596066434913 43.642921188350535
    vertex 3598.4087358942515 158.59606642888266 43.6429181629887
  endloop
endfacet
facet normal 5.840646656263271e-06 -3.7813023480340056e-06 0.9999999999757945
  outer loop
    vertex 3597.9155699232756 172.46839353785845 43.638661573280835
    vertex 3598.4087358942515 158.59606642888266 43.6429181629887
    vertex 3598.315420595839 173.16095521814987 43.638661573298066
  endloop
endfacet
facet normal 5.840646656263271e-06 -3.7813023480340056e-06 0.9999999999757945
  outer loop
    vertex 3598.315420595839 173.16095521814987 43.638661573298066
    vertex 3598.4087358942515 158.59606642888266 43.6429181629887
    vertex 3598.408590769258 171.60377998077536 43.638661569950656
  endloop
endfacet
facet normal 5.840646656263271e-06 -3.7813023480340056e-06 0.9999999999757945
  outer loop
    vertex 3597.7090510575063 130.3476311564303 43.638661569671726
    vertex 3598.4089054780707 143.39608095554158 43.64211002164216
    vertex 3597.708905478026 143.39608096014186 43.64211002158382
  endloop
endfacet
facet normal 5.840646656263271e-06 -3.7813023480340056e-06 0.9999999999757945
  outer loop
    vertex 3598.4089054780707 143.39608095554158 43.64211002164216
    vertex 3597.7090510575063 130.3476311564303 43.638661569671726
    vertex 3597.7969304081457 129.90583182627955 43.6386615696392
  endloop
endfacet
facet normal 5.840646656263271e-06 -3.7813023480340056e-06 0.9999999999757945
  outer loop
    vertex 3598.4089054780707 143.39608095554158 43.64211002164216
    vertex 3597.7969304081457 129.90583182627955 43.6386615696392
    vertex 3597.925311438386 129.52763350681272 43.63866156962115
  endloop
endfacet
facet normal 5.840646656263271e-06 -3.7813023480340056e-06 0.9999999999757945
  outer loop
    vertex 3598.4089054780707 143.39608095554158 43.64211002164216
    vertex 3597.925311438386 129.52763350681272 43.63866156962115
    vertex 3598.1019589376074 129.1694278135119 43.63866156959543
  endloop
endfacet
facet normal 5.840646656263271e-06 -3.7813023480340056e-06 0.9999999999757945
  outer loop
    vertex 3598.4089054780707 143.39608095554158 43.64211002164216
    vertex 3598.1019589376074 129.1694278135119 43.63866156959543
    vertex 3598.3238504181736 128.8373437449694 43.63866156957855
  endloop
endfacet
facet normal 5.840646656263271e-06 -3.7813023480340056e-06 0.9999999999757945
  outer loop
    vertex 3598.4089054780707 143.39608095554158 43.64211002164216
    vertex 3598.3238504181736 128.8373437449694 43.63866156957855
    vertex 3598.4090502883078 130.41657900576826 43.63866156969564
  endloop
endfacet
facet normal 5.840646656263271e-06 -3.7813023480340056e-06 0.9999999999757945
  outer loop
    vertex 3598.4090502883078 130.41657900576826 43.63866156969564
    vertex 3598.3238504181736 128.8373437449694 43.63866156957855
    vertex 3598.5871892553782 128.53706335167305 43.63866156955663
  endloop
endfacet
facet normal 5.840646656263271e-06 -3.7813023480340056e-06 0.9999999999757945
  outer loop
    vertex 3598.4090502883078 130.41657900576826 43.63866156969564
    vertex 3598.5871892553782 128.53706335167305 43.63866156955663
    vertex 3598.4745292777466 130.08739389615917 43.63866156967854
  endloop
endfacet
facet normal 5.840646656263271e-06 -3.7813023480340056e-06 0.9999999999757945
  outer loop
    vertex 3598.4745292777466 130.08739389615917 43.63866156967854
    vertex 3598.5871892553782 128.53706335167305 43.63866156955663
    vertex 3598.573414750083 129.79608668833393 43.63866156966077
  endloop
endfacet
facet normal 5.840646656263271e-06 -3.7813023480340056e-06 0.9999999999757945
  outer loop
    vertex 3598.573414750083 129.79608668833393 43.63866156966077
    vertex 3598.5871892553782 128.53706335167305 43.63866156955663
    vertex 3598.7094774640714 129.52017879826732 43.63866156963898
  endloop
endfacet
facet normal 5.840646656263271e-06 -3.7813023480340056e-06 0.9999999999757945
  outer loop
    vertex 3598.7094774640714 129.52017879826732 43.63866156963898
    vertex 3598.5871892553782 128.53706335167305 43.63866156955663
    vertex 3598.887469648639 128.27372451448537 43.63866156952446
  endloop
endfacet
facet normal 5.840646656263271e-06 -3.7813023480340056e-06 0.9999999999757945
  outer loop
    vertex 3598.7094774640714 129.52017879826732 43.63866156963898
    vertex 3598.887469648639 128.27372451448537 43.63866156952446
    vertex 3598.880389348966 129.2643910863879 43.638661569632525
  endloop
endfacet
facet normal 5.840646656263271e-06 -3.7813023480340056e-06 0.9999999999757945
  outer loop
    vertex 3598.880389348966 129.2643910863879 43.638661569632525
    vertex 3598.887469648639 128.27372451448537 43.63866156952446
    vertex 3599.0832260550774 129.03310015136063 43.63866156960983
  endloop
endfacet
facet normal 5.840646656263271e-06 -3.7813023480340056e-06 0.9999999999757945
  outer loop
    vertex 3599.0832260550774 129.03310015136063 43.63866156960983
    vertex 3598.887469648639 128.27372451448537 43.63866156952446
    vertex 3599.2195537171638 128.05183303389632 43.63866156951065
  endloop
endfacet
facet normal 5.840646656263271e-06 -3.7813023480340056e-06 0.9999999999757945
  outer loop
    vertex 3599.0832260550774 129.03310015136063 43.63866156960983
    vertex 3599.2195537171638 128.05183303389632 43.63866156951065
    vertex 3599.314516990089 128.8302634452555 43.63866156958591
  endloop
endfacet
facet normal 5.840646656263271e-06 -3.7813023480340056e-06 0.9999999999757945
  outer loop
    vertex 3599.314516990089 128.8302634452555 43.63866156958591
    vertex 3599.2195537171638 128.05183303389632 43.63866156951065
    vertex 3599.5777594105125 127.87518553463444 43.63866156948733
  endloop
endfacet
facet normal 5.840646656263271e-06 -3.7813023480340056e-06 0.9999999999757945
  outer loop
    vertex 3599.314516990089 128.8302634452555 43.63866156958591
    vertex 3599.5777594105125 127.87518553463444 43.63866156948733
    vertex 3599.570304701958 128.6593515603357 43.63866156957523
  endloop
endfacet
facet normal 5.840646656263271e-06 -3.7813023480340056e-06 0.9999999999757945
  outer loop
    vertex 3599.570304701958 128.6593515603357 43.63866156957523
    vertex 3599.5777594105125 127.87518553463444 43.63866156948733
    vertex 3599.846212592048 128.52328884632615 43.63866156955601
  endloop
endfacet
facet normal 5.840646656263271e-06 -3.7813023480340056e-06 0.9999999999757945
  outer loop
    vertex 3599.846212592048 128.52328884632615 43.63866156955601
    vertex 3599.5777594105125 127.87518553463444 43.63866156948733
    vertex 3599.955957729943 127.7468045044045 43.63866156946635
  endloop
endfacet
facet normal 5.840646656263271e-06 -3.7813023480340056e-06 0.9999999999757945
  outer loop
    vertex 3599.846212592048 128.52328884632615 43.63866156955601
    vertex 3599.955957729943 127.7468045044045 43.63866156946635
    vertex 3600.137519799851 128.42440337399526 43.63866156953769
  endloop
endfacet
facet normal 5.840646656263271e-06 -3.7813023480340056e-06 0.9999999999757945
  outer loop
    vertex 3600.137519799851 128.42440337399526 43.63866156953769
    vertex 3599.955957729943 127.7468045044045 43.63866156946635
    vertex 3600.397765620243 127.65892345100998 43.63866156944718
  endloop
endfacet
facet normal 5.840646656263271e-06 -3.7813023480340056e-06 0.9999999999757945
  outer loop
    vertex 3600.137519799851 128.42440337399526 43.63866156953769
    vertex 3600.397765620243 127.65892345100998 43.63866156944718
    vertex 3600.466709603739 128.35892345078128 43.63866156951919
  endloop
endfacet
facet normal 5.840646656263271e-06 -3.7813023480340056e-06 0.9999999999757945
  outer loop
    vertex 3600.466709603739 128.35892345078128 43.63866156951919
    vertex 3600.397765620243 127.65892345100998 43.63866156944718
    vertex 3672.7456099662018 127.65892321328006 43.63866156945057
  endloop
endfacet
facet normal 5.840646656263271e-06 -3.7813023480340056e-06 0.9999999999757945
  outer loop
    vertex 3600.466709603739 128.35892345078128 43.63866156951919
    vertex 3672.7456099662018 127.65892321328006 43.63866156945057
    vertex 3672.653453219027 128.35892321358074 43.63866156951997
  endloop
endfacet
facet normal 5.840646656263271e-06 -3.7813023480340056e-06 0.9999999999757945
  outer loop
    vertex 3672.653453219027 128.35892321358074 43.63866156951997
    vertex 3672.7456099662018 127.65892321328006 43.63866156945057
    vertex 3673.2478722113915 128.5181973025398 43.63866156949394
  endloop
endfacet
facet normal 5.840646656263271e-06 -3.7813023480340056e-06 0.9999999999757945
  outer loop
    vertex 3673.2478722113915 128.5181973025398 43.63866156949394
    vertex 3672.7456099662018 127.65892321328006 43.63866156945057
    vertex 3673.5180621262175 127.86590114573333 43.638661569423284
  endloop
endfacet
facet normal 5.840646656263271e-06 -3.7813023480340056e-06 0.9999999999757945
  outer loop
    vertex 3673.2478722113915 128.5181973025398 43.63866156949394
    vertex 3673.5180621262175 127.86590114573333 43.638661569423284
    vertex 3673.7808136989033 128.82589121381017 43.63866156947945
  endloop
endfacet
facet normal 5.840646656263271e-06 -3.7813023480340056e-06 0.9999999999757945
  outer loop
    vertex 3673.7808136989033 128.82589121381017 43.63866156947945
    vertex 3673.5180621262175 127.86590114573333 43.638661569423284
    vertex 3674.21062378406 128.26575180531228 43.638661569417465
  endloop
endfacet
facet normal 5.840646656263271e-06 -3.7813023480340056e-06 0.9999999999757945
  outer loop
    vertex 3673.7808136989033 128.82589121381017 43.63866156947945
    vertex 3674.21062378406 128.26575180531228 43.638661569417465
    vertex 3674.2159586013004 129.26103611618706 43.638661569484015
  endloop
endfacet
facet normal 5.840646656263271e-06 -3.7813023480340056e-06 0.9999999999757945
  outer loop
    vertex 3674.2159586013004 129.26103611618706 43.638661569484015
    vertex 3674.21062378406 128.26575180531228 43.638661569417465
    vertex 3674.776098009781 128.83122603100642 43.63866156942839
  endloop
endfacet
facet normal 5.840646656263271e-06 -3.7813023480340056e-06 0.9999999999757945
  outer loop
    vertex 3674.2159586013004 129.26103611618706 43.638661569484015
    vertex 3674.776098009781 128.83122603100642 43.63866156942839
    vertex 3674.523652519712 129.79397761602223 43.63866156948758
  endloop
endfacet
facet normal 5.840646656263271e-06 -3.7813023480340056e-06 0.9999999999757945
  outer loop
    vertex 3674.523652519712 129.79397761602223 43.63866156948758
    vertex 3674.776098009781 128.83122603100642 43.63866156942839
    vertex 3674.6829265878705 130.38839660892384 43.63866157282133
  endloop
endfacet
facet normal 5.840646656263271e-06 -3.7813023480340056e-06 0.9999999999757945
  outer loop
    vertex 3674.6829265878705 130.38839660892384 43.63866157282133
    vertex 3674.776098009781 128.83122603100642 43.63866156942839
    vertex 3674.682926588544 171.60378441724646 43.638661573077194
  endloop
endfacet
facet normal 5.840646656263271e-06 -3.7813023480340056e-06 0.9999999999757945
  outer loop
    vertex 3674.682926588544 171.60378441724646 43.638661573077194
    vertex 3674.776098009781 128.83122603100642 43.63866156942839
    vertex 3674.7760979971795 173.16095498093293 43.63866157315273
  endloop
endfacet
facet normal 5.840646656263271e-06 -3.7813023480340056e-06 0.9999999999757945
  outer loop
    vertex 3674.7760979971795 173.16095498093293 43.63866157315273
    vertex 3674.776098009781 128.83122603100642 43.63866156942839
    vertex 3675.1759486567703 172.46839332306615 43.638661573104365
  endloop
endfacet
facet normal 5.840646656263271e-06 -3.7813023480340056e-06 0.9999999999757945
  outer loop
    vertex 3675.1759486567703 172.46839332306615 43.638661573104365
    vertex 3674.776098009781 128.83122603100642 43.63866156942839
    vertex 3675.1759486823707 129.52378771132567 43.63866156944499
  endloop
endfacet
facet normal 5.840646656263271e-06 -3.7813023480340056e-06 0.9999999999757945
  outer loop
    vertex 3675.1759486567703 172.46839332306615 43.638661573104365
    vertex 3675.1759486823707 129.52378771132567 43.63866156944499
    vertex 3675.3829265885447 171.6959411655442 43.63866157305717
  endloop
endfacet
facet normal 5.840646656263271e-06 -3.7813023480340056e-06 0.9999999999757945
  outer loop
    vertex 3675.3829265885447 171.6959411655442 43.63866157305717
    vertex 3675.1759486823707 129.52378771132567 43.63866156944499
    vertex 3675.3829265878658 130.29623987232202 43.6386615732898
  endloop
endfacet
facet normal 5.840646656263271e-06 -3.7813023480340056e-06 0.9999999999757945
  outer loop
    vertex 3598.408590769258 171.60377998077536 43.638661569950656
    vertex 3598.8808948215574 173.7264294438635 43.638661573311566
    vertex 3598.315420595839 173.16095521814987 43.638661573298066
  endloop
endfacet
facet normal 5.840646656263271e-06 -3.7813023480340056e-06 0.9999999999757945
  outer loop
    vertex 3598.8808948215574 173.7264294438635 43.638661573311566
    vertex 3598.408590769258 171.60377998077536 43.638661569950656
    vertex 3598.567866085933 172.19820363315395 43.638661573281695
  endloop
endfacet
facet normal 5.840646656263271e-06 -3.7813023480340056e-06 0.9999999999757945
  outer loop
    vertex 3598.8808948215574 173.7264294438635 43.638661573311566
    vertex 3598.567866085933 172.19820363315395 43.638661573281695
    vertex 3598.8755600043287 172.7311451329749 43.63866157328819
  endloop
endfacet
facet normal 5.840646656263271e-06 -3.7813023480340056e-06 0.9999999999757945
  outer loop
    vertex 3598.8808948215574 173.7264294438635 43.638661573311566
    vertex 3598.8755600043287 172.7311451329749 43.63866157328819
    vertex 3599.3107049067185 173.16629003536133 43.638661573290676
  endloop
endfacet
facet normal 5.840646656263271e-06 -3.7813023480340056e-06 0.9999999999757945
  outer loop
    vertex 3598.8808948215574 173.7264294438635 43.638661573311566
    vertex 3599.3107049067185 173.16629003536133 43.638661573290676
    vertex 3599.573456479429 174.12628010344523 43.63866157330399
  endloop
endfacet
facet normal 5.840646656263271e-06 -3.7813023480340056e-06 0.9999999999757945
  outer loop
    vertex 3599.573456479429 174.12628010344523 43.63866157330399
    vertex 3599.3107049067185 173.16629003536133 43.638661573290676
    vertex 3599.843646394249 173.47398394663375 43.63866157327831
  endloop
endfacet
facet normal 5.840646656263271e-06 -3.7813023480340056e-06 0.9999999999757945
  outer loop
    vertex 3599.573456479429 174.12628010344523 43.63866157330399
    vertex 3599.843646394249 173.47398394663375 43.63866157327831
    vertex 3600.3459086394373 174.33325803589847 43.638661573286576
  endloop
endfacet
facet normal 5.840646656263271e-06 -3.7813023480340056e-06 0.9999999999757945
  outer loop
    vertex 3600.3459086394373 174.33325803589847 43.638661573286576
    vertex 3599.843646394249 173.47398394663375 43.63866157327831
    vertex 3600.4380653866074 173.63325803559266 43.63866157325806
  endloop
endfacet
facet normal 5.840646656263271e-06 -3.7813023480340056e-06 0.9999999999757945
  outer loop
    vertex 3600.3459086394373 174.33325803589847 43.638661573286576
    vertex 3600.4380653866074 173.63325803559266 43.63866157325806
    vertex 3672.7456099789115 174.3332577973995 43.63866156946948
  endloop
endfacet
facet normal 5.840646656263271e-06 -3.7813023480340056e-06 0.9999999999757945
  outer loop
    vertex 3672.7456099789115 174.3332577973995 43.63866156946948
    vertex 3600.4380653866074 173.63325803559266 43.63866157325806
    vertex 3672.65345322632 173.63325779770116 43.63866156993814
  endloop
endfacet
facet normal 5.840646656263271e-06 -3.7813023480340056e-06 0.9999999999757945
  outer loop
    vertex 3672.7456099789115 174.3332577973995 43.63866156946948
    vertex 3672.65345322632 173.63325779770116 43.63866156993814
    vertex 3673.2478722020905 173.47398370754965 43.638661573217874
  endloop
endfacet
facet normal 5.840646656263271e-06 -3.7813023480340056e-06 0.9999999999757945
  outer loop
    vertex 3672.7456099789115 174.3332577973995 43.63866156946948
    vertex 3673.2478722020905 173.47398370754965 43.638661573217874
    vertex 3673.518062119655 174.1262798627826 43.63866157324143
  endloop
endfacet
facet normal 5.840646656263271e-06 -3.7813023480340056e-06 0.9999999999757945
  outer loop
    vertex 3673.518062119655 174.1262798627826 43.63866157324143
    vertex 3673.2478722020905 173.47398370754965 43.638661573217874
    vertex 3673.7808136863014 173.16628979816755 43.63866157318471
  endloop
endfacet
facet normal 5.840646656263271e-06 -3.7813023480340056e-06 0.9999999999757945
  outer loop
    vertex 3673.518062119655 174.1262798627826 43.63866157324143
    vertex 3673.7808136863014 173.16628979816755 43.63866157318471
    vertex 3674.2106237714784 173.72642920665572 43.63866157320389
  endloop
endfacet
facet normal 5.840646656263271e-06 -3.7813023480340056e-06 0.9999999999757945
  outer loop
    vertex 3674.2106237714784 173.72642920665572 43.63866157320389
    vertex 3673.7808136863014 173.16628979816755 43.63866157318471
    vertex 3674.215958588683 172.73114489577105 43.63866157314104
  endloop
endfacet
facet normal 5.840646656263271e-06 -3.7813023480340056e-06 0.9999999999757945
  outer loop
    vertex 3674.2106237714784 173.72642920665572 43.63866157320389
    vertex 3674.215958588683 172.73114489577105 43.63866157314104
    vertex 3674.7760979971795 173.16095498093293 43.63866157315273
  endloop
endfacet
facet normal 5.840646656263271e-06 -3.7813023480340056e-06 0.9999999999757945
  outer loop
    vertex 3674.7760979971795 173.16095498093293 43.63866157315273
    vertex 3674.215958588683 172.73114489577105 43.63866157314104
    vertex 3674.5236524999573 172.19820340824552 43.638661573107065
  endloop
endfacet
facet normal 5.840646656263271e-06 -3.7813023480340056e-06 0.9999999999757945
  outer loop
    vertex 3674.7760979971795 173.16095498093293 43.63866157315273
    vertex 3674.5236524999573 172.19820340824552 43.638661573107065
    vertex 3674.682926588544 171.60378441724646 43.638661573077194
  endloop
endfacet
facet normal 0.4999999999827604 -0.866025403794392 -5.1320309113462065e-11
  outer loop
    vertex 3599.843646394249 173.47398394663375 43.63866157327831
    vertex 3599.3107037386144 173.1662907920509 36.43847226176091
    vertex 3599.8436452261426 173.47398470332317 36.43847226174977
  endloop
endfacet
facet normal 0.4999999999827604 -0.866025403794392 -5.1320309113462065e-11
  outer loop
    vertex 3599.3107037386144 173.1662907920509 36.43847226176091
    vertex 3599.843646394249 173.47398394663375 43.63866157327831
    vertex 3599.3107049067185 173.16629003536133 43.638661573290676
  endloop
endfacet
facet normal 1.1392946586140241e-10 -3.456409986153138e-12 1.0
  outer loop
    vertex 3668.44575813861 129.35892398606032 38.63847225614496
    vertex 3667.4457581386096 172.6332585702205 38.638472256408505
    vertex 3667.4457581386096 129.35892398606032 38.63847225623561
  endloop
endfacet
facet normal 1.1392946586140241e-10 -3.456409986153138e-12 1.0
  outer loop
    vertex 3667.4457581386096 172.6332585702205 38.638472256408505
    vertex 3668.44575813861 129.35892398606032 38.63847225614496
    vertex 3668.44575813861 172.6332585702205 38.638472256271214
  endloop
endfacet
facet normal 0.3214394653138285 0.9469301294914849 5.917618088347283e-11
  outer loop
    vertex 3599.8462114239423 128.52328960301563 36.43847225802602
    vertex 3600.137519799851 128.42440337399526 43.63866156953769
    vertex 3600.1375186317473 128.42440413068468 36.4384722580086
  endloop
endfacet
facet normal 0.3214394653138285 0.9469301294914849 5.917618088347283e-11
  outer loop
    vertex 3600.137519799851 128.42440337399526 43.63866156953769
    vertex 3599.8462114239423 128.52328960301563 36.43847225802602
    vertex 3599.846212592048 128.52328884632615 43.63866156955601
  endloop
endfacet
facet normal -0.4422886902350425 -0.8968727415247776 -5.6780358083290286e-11
  outer loop
    vertex 3599.5777594105125 127.87518553463444 43.63866156948733
    vertex 3599.21955254906 128.05183379064331 35.53847225800144
    vertex 3599.5777582424116 127.8751862913814 35.53847225798029
  endloop
endfacet
facet normal -0.4422886902350425 -0.8968727415247776 -5.6780358083290286e-11
  outer loop
    vertex 3599.21955254906 128.05183379064331 35.53847225800144
    vertex 3599.5777594105125 127.87518553463444 43.63866156948733
    vertex 3599.2195537171638 128.05183303389632 43.63866156951065
  endloop
endfacet
facet normal -0.896872741536184 -0.44228869021191286 -3.038144873262864e-11
  outer loop
    vertex 3597.925311438386 129.52763350681272 43.63866156962115
    vertex 3598.101957769509 129.16942857025893 35.53847225808852
    vertex 3598.1019589376074 129.1694278135119 43.63866156959543
  endloop
endfacet
facet normal -0.896872741536184 -0.44228869021191286 -3.038144873262864e-11
  outer loop
    vertex 3598.101957769509 129.16942857025893 35.53847225808852
    vertex 3597.925311438386 129.52763350681272 43.63866156962115
    vertex 3597.925310270282 129.52763426355955 35.53847225811225
  endloop
endfacet
facet normal -0.7518398074953588 -0.6593458150813893 -4.323885368305604e-11
  outer loop
    vertex 3598.3238504181736 128.8373437449694 43.63866156957855
    vertex 3598.5871880872783 128.53706410842014 35.53847225804751
    vertex 3598.5871892553782 128.53706335167305 43.63866156955663
  endloop
endfacet
facet normal -0.7518398074953588 -0.6593458150813893 -4.323885368305604e-11
  outer loop
    vertex 3598.5871880872783 128.53706410842014 35.53847225804751
    vertex 3598.3238504181736 128.8373437449694 43.63866156957855
    vertex 3598.323849250071 128.8373445017164 35.53847225807169
  endloop
endfacet
facet normal -0.9469301294942668 -0.3214394653056331 -2.3115397414694565e-11
  outer loop
    vertex 3597.7969304081457 129.90583182627955 43.6386615696392
    vertex 3597.925310270282 129.52763426355955 35.53847225811225
    vertex 3597.925311438386 129.52763350681272 43.63866156962115
  endloop
endfacet
facet normal -0.9469301294942668 -0.3214394653056331 -2.3115397414694565e-11
  outer loop
    vertex 3597.925310270282 129.52763426355955 35.53847225811225
    vertex 3597.7969304081457 129.90583182627955 43.6386615696392
    vertex 3597.7969292400453 129.9058325830266 35.538472258131605
  endloop
endfacet
facet normal 0.25881904508719134 -0.9659258262931758 -5.829998749423585e-11
  outer loop
    vertex 3600.4380653866074 173.63325803559266 43.63866157325806
    vertex 3599.8436452261426 173.47398470332317 36.43847226174977
    vertex 3600.438064218503 173.63325879228222 36.43847226172807
  endloop
endfacet
facet normal 0.25881904508719134 -0.9659258262931758 -5.829998749423585e-11
  outer loop
    vertex 3599.8436452261426 173.47398470332317 36.43847226174977
    vertex 3600.4380653866074 173.63325803559266 43.63866157325806
    vertex 3599.843646394249 173.47398394663375 43.63866157327831
  endloop
endfacet
facet normal -0.999999999937763 -1.1156765903559509e-05 -2.4495238365451755e-08
  outer loop
    vertex 3597.7085897410775 171.69593288016748 43.638661569438774
    vertex 3597.7087288852426 158.59621116728692 41.0399934831139
    vertex 3597.70873589421 158.596066434913 43.642921188350535
  endloop
endfacet
facet normal -0.999999999937763 -1.1156765903559509e-05 -2.4495238365451755e-08
  outer loop
    vertex 3597.708905478026 143.39608096014186 43.64211002158382
    vertex 3597.709049889407 130.34763191317725 35.53847225816382
    vertex 3597.7090510575063 130.3476311564303 43.638661569671726
  endloop
endfacet
facet normal -0.999999999937763 -1.1156765903559509e-05 -2.4495238365451755e-08
  outer loop
    vertex 3597.709049889407 130.34763191317725 35.53847225816382
    vertex 3597.708905478026 143.39608096014186 43.64211002158382
    vertex 3597.7088984690586 143.39622569251566 41.03918231634845
  endloop
endfacet
facet normal -0.999999999937763 -1.1156765903559509e-05 -2.4495238365451755e-08
  outer loop
    vertex 3597.709049889407 130.34763191317725 35.53847225816382
    vertex 3597.7088984690586 143.39622569251566 41.03918231634845
    vertex 3597.7085885729757 171.6959336369146 35.53847225793006
  endloop
endfacet
facet normal -0.999999999937763 -1.1156765903559509e-05 -2.4495238365451755e-08
  outer loop
    vertex 3597.7085885729757 171.6959336369146 35.53847225793006
    vertex 3597.7088984690586 143.39622569251566 41.03918231634845
    vertex 3597.7087288852426 158.59621116728692 41.0399934831139
  endloop
endfacet
facet normal -0.999999999937763 -1.1156765903559509e-05 -2.4495238365451755e-08
  outer loop
    vertex 3597.7085885729757 171.6959336369146 35.53847225793006
    vertex 3597.7087288852426 158.59621116728692 41.0399934831139
    vertex 3597.7085897410775 171.69593288016748 43.638661569438774
  endloop
endfacet
facet normal -0.9807852804151085 -0.19509032195641396 -1.5454013161891685e-11
  outer loop
    vertex 3597.7090510575063 130.3476311564303 43.638661569671726
    vertex 3597.7969292400453 129.9058325830266 35.538472258131605
    vertex 3597.7969304081457 129.90583182627955 43.6386615696392
  endloop
endfacet
facet normal -0.9807852804151085 -0.19509032195641396 -1.5454013161891685e-11
  outer loop
    vertex 3597.7969292400453 129.9058325830266 35.538472258131605
    vertex 3597.7090510575063 130.3476311564303 43.638661569671726
    vertex 3597.709049889407 130.34763191317725 35.53847225816382
  endloop
endfacet
facet normal -0.5555702330340727 -0.8314696122928764 -5.314989583471161e-11
  outer loop
    vertex 3599.2195537171638 128.05183303389632 43.63866156951065
    vertex 3598.88746848054 128.27372527123228 35.53847225801737
    vertex 3599.21955254906 128.05183379064331 35.53847225800144
  endloop
endfacet
facet normal -0.5555702330340727 -0.8314696122928764 -5.314989583471161e-11
  outer loop
    vertex 3598.88746848054 128.27372527123228 35.53847225801737
    vertex 3599.2195537171638 128.05183303389632 43.63866156951065
    vertex 3598.887469648639 128.27372451448537 43.63866156952446
  endloop
endfacet
facet normal -0.6593458150994388 -0.7518398074795299 -4.860999502723303e-11
  outer loop
    vertex 3598.887469648639 128.27372451448537 43.63866156952446
    vertex 3598.5871880872783 128.53706410842014 35.53847225804751
    vertex 3598.88746848054 128.27372527123228 35.53847225801737
  endloop
endfacet
facet normal -0.6593458150994388 -0.7518398074795299 -4.860999502723303e-11
  outer loop
    vertex 3598.5871880872783 128.53706410842014 35.53847225804751
    vertex 3598.887469648639 128.27372451448537 43.63866156952446
    vertex 3598.5871892553782 128.53706335167305 43.63866156955663
  endloop
endfacet
facet normal -0.9659258347965903 0.2588190133520141 1.2555486856474377e-11
  outer loop
    vertex 3597.9155699232756 172.46839353785845 43.638661573280835
    vertex 3597.7085885729757 171.6959336369146 35.53847225793006
    vertex 3597.7085897410775 171.69593288016748 43.638661569438774
  endloop
endfacet
facet normal -0.9659258347965903 0.2588190133520141 1.2555486856474377e-11
  outer loop
    vertex 3597.7085885729757 171.6959336369146 35.53847225793006
    vertex 3597.9155699232756 172.46839353785845 43.638661573280835
    vertex 3597.9155687551765 172.46839429460547 35.53847226177266
  endloop
endfacet
facet normal -0.7071067811819726 0.7071067811911227 4.107719502846693e-11
  outer loop
    vertex 3598.315420595839 173.16095521814987 43.638661573298066
    vertex 3598.8808936534588 173.72643020061068 35.5384722618024
    vertex 3598.3154194277386 173.1609559748968 35.53847226179098
  endloop
endfacet
facet normal -0.7071067811819726 0.7071067811911227 4.107719502846693e-11
  outer loop
    vertex 3598.8808936534588 173.72643020061068 35.5384722618024
    vertex 3598.315420595839 173.16095521814987 43.638661573298066
    vertex 3598.8808948215574 173.7264294438635 43.638661573311566
  endloop
endfacet
facet normal 0.2588190536355368 0.9659258240026535 6.040827794546998e-11
  outer loop
    vertex 3672.7456099789115 174.3332577973995 43.63866156946948
    vertex 3673.5180609515533 174.1262806195294 35.538472261734384
    vertex 3672.7456088108097 174.33325855414648 35.5384722579655
  endloop
endfacet
facet normal 0.2588190536355368 0.9659258240026535 6.040827794546998e-11
  outer loop
    vertex 3673.5180609515533 174.1262806195294 35.538472261734384
    vertex 3672.7456099789115 174.3332577973995 43.63866156946948
    vertex 3673.518062119655 174.1262798627826 43.63866157324143
  endloop
endfacet
facet normal -0.5000000000142104 -0.8660254037762344 -5.486459203616931e-11
  outer loop
    vertex 3673.7808136863014 173.16628979816755 43.63866157318471
    vertex 3673.24787103399 173.47398446423918 36.43847226168852
    vertex 3673.7808125181955 173.16629055485723 36.438472261655804
  endloop
endfacet
facet normal -0.5000000000142104 -0.8660254037762344 -5.486459203616931e-11
  outer loop
    vertex 3673.24787103399 173.47398446423918 36.43847226168852
    vertex 3673.7808136863014 173.16628979816755 43.63866157318471
    vertex 3673.2478722020905 173.47398370754965 43.638661573217874
  endloop
endfacet
facet normal -0.25881904508722436 0.9659258262931669 5.859126491308711e-11
  outer loop
    vertex 3599.5734553113257 174.1262808601923 35.5384722617969
    vertex 3600.3459086394373 174.33325803589847 43.638661573286576
    vertex 3600.345907471333 174.33325879264564 35.538472261777144
  endloop
endfacet
facet normal -0.25881904508722436 0.9659258262931669 5.859126491308711e-11
  outer loop
    vertex 3600.3459086394373 174.33325803589847 43.638661573286576
    vertex 3599.5734553113257 174.1262808601923 35.5384722617969
    vertex 3599.573456479429 174.12628010344523 43.63866157330399
  endloop
endfacet
facet normal -0.4999999999827895 0.8660254037943752 5.15919043597549e-11
  outer loop
    vertex 3598.8808936534588 173.72643020061068 35.5384722618024
    vertex 3599.573456479429 174.12628010344523 43.63866157330399
    vertex 3599.5734553113257 174.1262808601923 35.5384722617969
  endloop
endfacet
facet normal -0.4999999999827895 0.8660254037943752 5.15919043597549e-11
  outer loop
    vertex 3599.573456479429 174.12628010344523 43.63866157330399
    vertex 3598.8808936534588 173.72643020061068 35.5384722618024
    vertex 3598.8808948215574 173.7264294438635 43.638661573311566
  endloop
endfacet
facet normal -0.8660254037902658 -0.4999999999899072 -3.372294480562661e-11
  outer loop
    vertex 3674.215958588683 172.73114489577105 43.63866157314104
    vertex 3674.5236513318555 172.19820416493494 36.438472261577076
    vertex 3674.5236524999573 172.19820340824552 43.638661573107065
  endloop
endfacet
facet normal -0.8660254037902658 -0.4999999999899072 -3.372294480562661e-11
  outer loop
    vertex 3674.5236513318555 172.19820416493494 36.438472261577076
    vertex 3674.215958588683 172.73114489577105 43.63866157314104
    vertex 3674.2159574205784 172.73114565246058 36.438472261612134
  endloop
endfacet
facet normal -0.8314696123389569 -0.5555702329651084 -3.712811851516692e-11
  outer loop
    vertex 3598.1019589376074 129.1694278135119 43.63866156959543
    vertex 3598.323849250071 128.8373445017164 35.53847225807169
    vertex 3598.3238504181736 128.8373437449694 43.63866156957855
  endloop
endfacet
facet normal -0.8314696123389569 -0.5555702329651084 -3.712811851516692e-11
  outer loop
    vertex 3598.323849250071 128.8373445017164 35.53847225807169
    vertex 3598.1019589376074 129.1694278135119 43.63866156959543
    vertex 3598.101957769509 129.16942857025893 35.53847225808852
  endloop
endfacet
facet normal -0.7071067811980501 -0.707106781175045 -4.5857063374621525e-11
  outer loop
    vertex 3673.7808136863014 173.16628979816755 43.63866157318471
    vertex 3674.2159574205784 172.73114565246058 36.438472261612134
    vertex 3674.215958588683 172.73114489577105 43.63866157314104
  endloop
endfacet
facet normal -0.7071067811980501 -0.707106781175045 -4.5857063374621525e-11
  outer loop
    vertex 3674.2159574205784 172.73114565246058 36.438472261612134
    vertex 3673.7808136863014 173.16628979816755 43.63866157318471
    vertex 3673.7808125181955 173.16629055485723 36.438472261655804
  endloop
endfacet
facet normal -0.8660254037766923 0.5000000000134169 2.7763163066176556e-11
  outer loop
    vertex 3598.315420595839 173.16095521814987 43.638661573298066
    vertex 3597.9155687551765 172.46839429460547 35.53847226177266
    vertex 3597.9155699232756 172.46839353785845 43.638661573280835
  endloop
endfacet
facet normal -0.8660254037766923 0.5000000000134169 2.7763163066176556e-11
  outer loop
    vertex 3597.9155687551765 172.46839429460547 35.53847226177266
    vertex 3598.315420595839 173.16095521814987 43.638661573298066
    vertex 3598.3154194277386 173.1609559748968 35.53847226179098
  endloop
endfacet
facet normal 3.2941969851240107e-09 1.0 6.159801481983317e-11
  outer loop
    vertex 3600.345907471333 174.33325879264564 35.538472261777144
    vertex 3672.7456099789115 174.3332577973995 43.63866156946948
    vertex 3672.7456088108097 174.33325855414648 35.5384722579655
  endloop
endfacet
facet normal 3.2941969851240107e-09 1.0 6.159801481983317e-11
  outer loop
    vertex 3672.7456099789115 174.3332577973995 43.63866156946948
    vertex 3600.345907471333 174.33325879264564 35.538472261777144
    vertex 3600.3459086394373 174.33325803589847 43.638661573286576
  endloop
endfacet
facet normal -0.258819053635487 -0.9659258240026668 -6.0133660810882e-11
  outer loop
    vertex 3673.24787103399 173.47398446423918 36.43847226168852
    vertex 3672.65345322632 173.63325779770116 43.63866156993814
    vertex 3672.6534520582168 173.63325855439066 36.43847225840909
  endloop
endfacet
facet normal -0.258819053635487 -0.9659258240026668 -6.0133660810882e-11
  outer loop
    vertex 3672.65345322632 173.63325779770116 43.63866156993814
    vertex 3673.24787103399 173.47398446423918 36.43847226168852
    vertex 3673.2478722020905 173.47398370754965 43.638661573217874
  endloop
endfacet
endsolid Nextion Case 1
