solid Nextion Case 1
facet normal 3.8684565774993265e-11 -6.086184079599075e-11 1.0
  outer loop
    vertex 3599.3599915843665 46.78369878532947 36.140841829533684
    vertex 3599.258643875615 88.15351322287147 36.14084183106565
    vertex 3599.258643606894 47.161934646211314 36.14084182699179
  endloop
endfacet
facet normal 3.8684565774993265e-11 -6.086184079599075e-11 1.0
  outer loop
    vertex 3599.258643875615 88.15351322287147 36.14084183106565
    vertex 3599.3599915843665 46.78369878532947 36.140841829533684
    vertex 3599.3599918713817 88.53174908242468 36.14084183110745
  endloop
endfacet
facet normal 3.8684565774993265e-11 -6.086184079599075e-11 1.0
  outer loop
    vertex 3599.3599918713817 88.53174908242468 36.14084183110745
    vertex 3599.3599915843665 46.78369878532947 36.140841829533684
    vertex 3599.555780870479 46.44458178908051 36.14084182950131
  endloop
endfacet
facet normal 3.8684565774993265e-11 -6.086184079599075e-11 1.0
  outer loop
    vertex 3599.3599918713817 88.53174908242468 36.14084183110745
    vertex 3599.555780870479 46.44458178908051 36.14084182950131
    vertex 3599.555781161937 88.8708660761067 36.14084183114698
  endloop
endfacet
facet normal 3.8684565774993265e-11 -6.086184079599075e-11 1.0
  outer loop
    vertex 3599.555781161937 88.8708660761067 36.14084183114698
    vertex 3599.555780870479 46.44458178908051 36.14084182950131
    vertex 3599.832668735592 46.167693920341605 36.14084182948029
  endloop
endfacet
facet normal 3.8684565774993265e-11 -6.086184079599075e-11 1.0
  outer loop
    vertex 3599.555781161937 88.8708660761067 36.14084183114698
    vertex 3599.832668735592 46.167693920341605 36.14084182948029
    vertex 3599.8326690306762 89.14775394121527 36.140841831177774
  endloop
endfacet
facet normal 3.8684565774993265e-11 -6.086184079599075e-11 1.0
  outer loop
    vertex 3599.8326690306762 89.14775394121527 36.140841831177774
    vertex 3599.832668735592 46.167693920341605 36.14084182948029
    vertex 3600.1717857292674 45.97190462978852 36.14084182946562
  endloop
endfacet
facet normal 3.8684565774993265e-11 -6.086184079599075e-11 1.0
  outer loop
    vertex 3599.8326690306762 89.14775394121527 36.140841831177774
    vertex 3600.1717857292674 45.97190462978852 36.14084182946562
    vertex 3600.1717860269255 89.34354322732251 36.140841831205385
  endloop
endfacet
facet normal 3.8684565774993265e-11 -6.086184079599075e-11 1.0
  outer loop
    vertex 3600.1717860269255 89.34354322732251 36.140841831205385
    vertex 3600.1717857292674 45.97190462978852 36.14084182946562
    vertex 3600.5500215888214 45.87055663401539 36.140841829465145
  endloop
endfacet
facet normal 3.8684565774993265e-11 -6.086184079599075e-11 1.0
  outer loop
    vertex 3600.1717860269255 89.34354322732251 36.140841831205385
    vertex 3600.5500215888214 45.87055663401539 36.140841829465145
    vertex 3600.550021874466 89.44489121813666 36.1408418337991
  endloop
endfacet
facet normal 3.8684565774993265e-11 -6.086184079599075e-11 1.0
  outer loop
    vertex 3600.550021874466 89.44489121813666 36.1408418337991
    vertex 3600.5500215888214 45.87055663401539 36.140841829465145
    vertex 3672.541142888297 45.87055639745765 36.14084183566708
  endloop
endfacet
facet normal 3.8684565774993265e-11 -6.086184079599075e-11 1.0
  outer loop
    vertex 3600.550021874466 89.44489121813666 36.1408418337991
    vertex 3672.541142888297 45.87055639745765 36.14084183566708
    vertex 3664.8828247656315 60.057736279003535 36.14084180342241
  endloop
endfacet
facet normal 3.8684565774993265e-11 -6.086184079599075e-11 1.0
  outer loop
    vertex 3664.8828247656315 60.057736279003535 36.14084180342241
    vertex 3672.541142888297 45.87055639745765 36.14084183566708
    vertex 3673.8327350759846 60.05775099565485 36.14084169023255
  endloop
endfacet
facet normal 3.8684565774993265e-11 -6.086184079599075e-11 1.0
  outer loop
    vertex 3673.8327350759846 60.05775099565485 36.14084169023255
    vertex 3672.541142888297 45.87055639745765 36.14084183566708
    vertex 3672.733582158931 45.90883494704473 36.14084183567313
  endloop
endfacet
facet normal 3.8684565774993265e-11 -6.086184079599075e-11 1.0
  outer loop
    vertex 3673.8327350759846 60.05775099565485 36.14084169023255
    vertex 3672.733582158931 45.90883494704473 36.14084183567313
    vertex 3672.9193787316076 45.971904383562894 36.14084183568132
  endloop
endfacet
facet normal 3.8684565774993265e-11 -6.086184079599075e-11 1.0
  outer loop
    vertex 3673.8327350759846 60.05775099565485 36.14084169023255
    vertex 3672.9193787316076 45.971904383562894 36.14084183568132
    vertex 3673.0953535754516 46.05868557146734 36.140841835694246
  endloop
endfacet
facet normal 3.8684565774993265e-11 -6.086184079599075e-11 1.0
  outer loop
    vertex 3673.8327350759846 60.05775099565485 36.14084169023255
    vertex 3673.0953535754516 46.05868557146734 36.140841835694246
    vertex 3673.2584957120985 46.16769366057255 36.14084183571187
  endloop
endfacet
facet normal 3.8684565774993265e-11 -6.086184079599075e-11 1.0
  outer loop
    vertex 3673.8327350759846 60.05775099565485 36.14084169023255
    vertex 3673.2584957120985 46.16769366057255 36.14084183571187
    vertex 3673.4060137343645 46.29706349225149 36.140841835722604
  endloop
endfacet
facet normal 3.8684565774993265e-11 -6.086184079599075e-11 1.0
  outer loop
    vertex 3673.8327350759846 60.05775099565485 36.14084169023255
    vertex 3673.4060137343645 46.29706349225149 36.140841835722604
    vertex 3673.5353835679753 46.44458151281544 36.140841835740446
  endloop
endfacet
facet normal 3.8684565774993265e-11 -6.086184079599075e-11 1.0
  outer loop
    vertex 3673.8327350759846 60.05775099565485 36.14084169023255
    vertex 3673.5353835679753 46.44458151281544 36.140841835740446
    vertex 3673.6443916592075 46.607723648033584 36.140841835764476
  endloop
endfacet
facet normal 3.8684565774993265e-11 -6.086184079599075e-11 1.0
  outer loop
    vertex 3673.8327350759846 60.05775099565485 36.14084169023255
    vertex 3673.6443916592075 46.607723648033584 36.140841835764476
    vertex 3673.7311728494205 46.783698490740285 36.14084183578103
  endloop
endfacet
facet normal 3.8684565774993265e-11 -6.086184079599075e-11 1.0
  outer loop
    vertex 3673.8327350759846 60.05775099565485 36.14084169023255
    vertex 3673.7311728494205 46.783698490740285 36.14084183578103
    vertex 3673.7942422883784 46.9694950625875 36.140841835801695
  endloop
endfacet
facet normal 3.8684565774993265e-11 -6.086184079599075e-11 1.0
  outer loop
    vertex 3673.8327350759846 60.05775099565485 36.14084169023255
    vertex 3673.7942422883784 46.9694950625875 36.140841835801695
    vertex 3673.8325208404804 47.161934332718644 36.14084183582135
  endloop
endfacet
facet normal 3.8684565774993265e-11 -6.086184079599075e-11 1.0
  outer loop
    vertex 3600.550021874466 89.44489121813666 36.1408418337991
    vertex 3664.8828247656315 75.2577313501042 36.14084180342241
    vertex 3672.541600464467 89.4448909821725 36.14084183742173
  endloop
endfacet
facet normal 3.8684565774993265e-11 -6.086184079599075e-11 1.0
  outer loop
    vertex 3664.8828247656315 75.2577313501042 36.14084180342241
    vertex 3600.550021874466 89.44489121813666 36.1408418337991
    vertex 3664.8828247656315 60.057736279003535 36.14084180342241
  endloop
endfacet
facet normal 3.8684565774993265e-11 -6.086184079599075e-11 1.0
  outer loop
    vertex 3672.541600464467 89.4448909821725 36.14084183742173
    vertex 3664.8828247656315 75.2577313501042 36.14084180342241
    vertex 3673.832788452867 75.2577338727882 36.140841841337405
  endloop
endfacet
facet normal 3.8684565774993265e-11 -6.086184079599075e-11 1.0
  outer loop
    vertex 3672.541600464467 89.4448909821725 36.14084183742173
    vertex 3673.832788452867 75.2577338727882 36.140841841337405
    vertex 3672.9198363240193 89.3435429863992 36.14084183742034
  endloop
endfacet
facet normal 3.8684565774993265e-11 -6.086184079599075e-11 1.0
  outer loop
    vertex 3672.9198363240193 89.3435429863992 36.14084183742034
    vertex 3673.832788452867 75.2577338727882 36.140841841337405
    vertex 3673.258953317704 89.14775369584616 36.14084183740689
  endloop
endfacet
facet normal 3.8684565774993265e-11 -6.086184079599075e-11 1.0
  outer loop
    vertex 3673.258953317704 89.14775369584616 36.14084183740689
    vertex 3673.832788452867 75.2577338727882 36.140841841337405
    vertex 3673.5358411828074 88.87086582710724 36.14084183738796
  endloop
endfacet
facet normal 3.8684565774993265e-11 -6.086184079599075e-11 1.0
  outer loop
    vertex 3673.5358411828074 88.87086582710724 36.14084183738796
    vertex 3673.832788452867 75.2577338727882 36.140841841337405
    vertex 3673.7316304689143 88.53174883085833 36.14084183735575
  endloop
endfacet
facet normal 3.8684565774993265e-11 -6.086184079599075e-11 1.0
  outer loop
    vertex 3673.7316304689143 88.53174883085833 36.14084183735575
    vertex 3673.832788452867 75.2577338727882 36.140841841337405
    vertex 3673.8329784463963 88.15351296997649 36.14084183989608
  endloop
endfacet
facet normal 0.9659258365033052 0.2588190069824669 -1.9244692436859445e-09
  outer loop
    vertex 3599.258643606894 47.161934646211314 36.14084182699179
    vertex 3599.3599915914115 46.783698786734 42.84084168657996
    vertex 3599.3599915843665 46.78369878532947 36.140841829533684
  endloop
endfacet
facet normal 0.9659258365033052 0.2588190069824669 -1.9244692436859445e-09
  outer loop
    vertex 3599.3599915914115 46.783698786734 42.84084168657996
    vertex 3599.258643606894 47.161934646211314 36.14084182699179
    vertex 3599.2586436139377 47.161934647615986 42.84084168403795
  endloop
endfacet
facet normal -0.7518398031566245 0.659345820028768 1.2259170137363107e-09
  outer loop
    vertex 3673.406013744259 46.29706349369342 42.84084169071529
    vertex 3673.5353835679753 46.44458151281544 36.140841835740446
    vertex 3673.4060137343645 46.29706349225149 36.140841835722604
  endloop
endfacet
facet normal -0.7518398031566245 0.659345820028768 1.2259170137363107e-09
  outer loop
    vertex 3673.5353835679753 46.44458151281544 36.140841835740446
    vertex 3673.406013744259 46.29706349369342 42.84084169071529
    vertex 3673.535383577869 46.444581514257536 42.84084169073544
  endloop
endfacet
facet normal 0.9999999999493154 6.41144229350304e-24 1.0068228862886602e-05
  outer loop
    vertex 3664.8828308285724 60.05773978206282 35.53865642481884
    vertex 3664.8828247656315 75.2577313501042 36.14084180342241
    vertex 3664.8828247656315 60.057736279003535 36.14084180342241
  endloop
endfacet
facet normal 0.9999999999493154 6.41144229350304e-24 1.0068228862886602e-05
  outer loop
    vertex 3664.8828247656315 75.2577313501042 36.14084180342241
    vertex 3664.8828308285724 60.05773978206282 35.53865642481884
    vertex 3664.8828308285724 75.25773485316348 35.53865642481884
  endloop
endfacet
facet normal -1.553188240439314e-05 -9.027979733360733e-06 -0.9999999998386282
  outer loop
    vertex 3672.6337018397103 90.14485879836272 35.54273191679544
    vertex 3664.8828308285724 75.25773485316348 35.53865642481884
    vertex 3600.457809749621 90.1448590349311 35.54273298985253
  endloop
endfacet
facet normal -1.553188240439314e-05 -9.027979733360733e-06 -0.9999999998386282
  outer loop
    vertex 3664.8828308285724 75.25773485316348 35.53865642481884
    vertex 3672.6337018397103 90.14485879836272 35.54273191679544
    vertex 3674.532915211725 75.25769968816273 35.5348909521107
  endloop
endfacet
facet normal -1.553188240439314e-05 -9.027979733360733e-06 -0.9999999998386282
  outer loop
    vertex 3674.532915211725 75.25769968816273 35.5348909521107
    vertex 3672.6337018397103 90.14485879836272 35.54273191679544
    vertex 3673.189970866921 89.99580695783847 35.542731103728535
  endloop
endfacet
facet normal -1.553188240439314e-05 -9.027979733360733e-06 -0.9999999998386282
  outer loop
    vertex 3674.532915211725 75.25769968816273 35.5348909521107
    vertex 3673.189970866921 89.99580695783847 35.542731103728535
    vertex 3673.688708030626 89.70786091775656 35.54273060663879
  endloop
endfacet
facet normal -1.553188240439314e-05 -9.027979733360733e-06 -0.9999999998386282
  outer loop
    vertex 3674.532915211725 75.25769968816273 35.5348909521107
    vertex 3673.688708030626 89.70786091775656 35.54273060663879
    vertex 3674.0959252184584 89.300643724591 35.54273045943958
  endloop
endfacet
facet normal -1.553188240439314e-05 -9.027979733360733e-06 -0.9999999998386282
  outer loop
    vertex 3674.532915211725 75.25769968816273 35.5348909521107
    vertex 3674.0959252184584 89.300643724591 35.54273045943958
    vertex 3674.383871257863 88.80190654694894 35.542730671084314
  endloop
endfacet
facet normal -1.553188240439314e-05 -9.027979733360733e-06 -0.9999999998386282
  outer loop
    vertex 3674.532915211725 75.25769968816273 35.5348909521107
    vertex 3674.383871257863 88.80190654694894 35.542730671084314
    vertex 3674.53292399118 88.24563386555816 35.54275507295572
  endloop
endfacet
facet normal -1.553188240439314e-05 -9.027979733360733e-06 -0.9999999998386282
  outer loop
    vertex 3598.558588498315 88.24563779120301 35.542739382233265
    vertex 3598.707640042121 46.51347669967021 35.54274080511326
    vertex 3598.558588228384 47.06974572929521 35.5427402439349
  endloop
endfacet
facet normal -1.553188240439314e-05 -9.027979733360733e-06 -0.9999999998386282
  outer loop
    vertex 3598.707640042121 46.51347669967021 35.54274080511326
    vertex 3598.558588498315 88.24563779120301 35.542739382233265
    vertex 3598.7076403385286 88.8019068172813 35.54273826846829
  endloop
endfacet
facet normal -1.553188240439314e-05 -9.027979733360733e-06 -0.9999999998386282
  outer loop
    vertex 3598.707640042121 46.51347669967021 35.54274080511326
    vertex 3598.7076403385286 88.8019068172813 35.54273826846829
    vertex 3598.9955860815244 46.01473952203059 35.542741016757326
  endloop
endfacet
facet normal -1.553188240439314e-05 -9.027979733360733e-06 -0.9999999998386282
  outer loop
    vertex 3598.9955860815244 46.01473952203059 35.542741016757326
    vertex 3598.7076403385286 88.8019068172813 35.54273826846829
    vertex 3598.9955863786054 89.30064398097593 35.54273698220985
  endloop
endfacet
facet normal -1.553188240439314e-05 -9.027979733360733e-06 -0.9999999998386282
  outer loop
    vertex 3598.9955860815244 46.01473952203059 35.542741016757326
    vertex 3598.9955863786054 89.30064398097593 35.54273698220985
    vertex 3599.4028032693514 45.60752232886496 35.54274086956522
  endloop
endfacet
facet normal -1.553188240439314e-05 -9.027979733360733e-06 -0.9999999998386282
  outer loop
    vertex 3599.4028032693514 45.60752232886496 35.54274086956522
    vertex 3598.9955863786054 89.30064398097593 35.54273698220985
    vertex 3599.40280357174 89.70786116878021 35.54273561118342
  endloop
endfacet
facet normal -1.553188240439314e-05 -9.027979733360733e-06 -0.9999999998386282
  outer loop
    vertex 3599.4028032693514 45.60752232886496 35.54274086956522
    vertex 3599.40280357174 89.70786116878021 35.54273561118342
    vertex 3599.9015404330635 45.31957628878245 35.542740372466284
  endloop
endfacet
facet normal -1.553188240439314e-05 -9.027979733360733e-06 -0.9999999998386282
  outer loop
    vertex 3599.9015404330635 45.31957628878245 35.542740372466284
    vertex 3599.40280357174 89.70786116878021 35.54273561118342
    vertex 3599.9015407364845 89.9958072007382 35.54273424771478
  endloop
endfacet
facet normal -1.553188240439314e-05 -9.027979733360733e-06 -0.9999999998386282
  outer loop
    vertex 3599.9015404330635 45.31957628878245 35.542740372466284
    vertex 3599.9015407364845 89.9958072007382 35.54273424771478
    vertex 3600.4578094602693 45.1705244482593 35.54273955940557
  endloop
endfacet
facet normal -1.553188240439314e-05 -9.027979733360733e-06 -0.9999999998386282
  outer loop
    vertex 3600.4578094602693 45.1705244482593 35.54273955940557
    vertex 3599.9015407364845 89.9958072007382 35.54273424771478
    vertex 3600.457809749621 90.1448590349311 35.54273298985253
  endloop
endfacet
facet normal -1.553188240439314e-05 -9.027979733360733e-06 -0.9999999998386282
  outer loop
    vertex 3600.4578094602693 45.1705244482593 35.54273955940557
    vertex 3600.457809749621 90.1448590349311 35.54273298985253
    vertex 3672.610031490704 45.17052421117237 35.54273848857535
  endloop
endfacet
facet normal -1.553188240439314e-05 -9.027979733360733e-06 -0.9999999998386282
  outer loop
    vertex 3672.610031490704 45.17052421117237 35.54273848857535
    vertex 3600.457809749621 90.1448590349311 35.54273298985253
    vertex 3664.8828308285724 60.05773978206282 35.53865642481884
  endloop
endfacet
facet normal -1.553188240439314e-05 -9.027979733360733e-06 -0.9999999998386282
  outer loop
    vertex 3664.8828308285724 60.05773978206282 35.53865642481884
    vertex 3600.457809749621 90.1448590349311 35.54273298985253
    vertex 3664.8828308285724 75.25773485316348 35.53865642481884
  endloop
endfacet
facet normal -1.553188240439314e-05 -9.027979733360733e-06 -0.9999999998386282
  outer loop
    vertex 3672.610031490704 45.17052421117237 35.54273848857535
    vertex 3664.8828308285724 60.05773978206282 35.53865642481884
    vertex 3674.5327452937163 60.05771388885306 35.53491701184748
  endloop
endfacet
facet normal -1.553188240439314e-05 -9.027979733360733e-06 -0.9999999998386282
  outer loop
    vertex 3672.610031490704 45.17052421117237 35.54273848857535
    vertex 3674.5327452937163 60.05771388885306 35.53491701184748
    vertex 3672.9150888480926 45.23120389023851 35.542737555836055
  endloop
endfacet
facet normal -1.553188240439314e-05 -9.027979733360733e-06 -0.9999999998386282
  outer loop
    vertex 3672.9150888480926 45.23120389023851 35.542737555836055
    vertex 3674.5327452937163 60.05771388885306 35.53491701184748
    vertex 3673.1877765327313 45.32376888413647 35.54273689288039
  endloop
endfacet
facet normal -1.553188240439314e-05 -9.027979733360733e-06 -0.9999999998386282
  outer loop
    vertex 3673.1877765327313 45.32376888413647 35.54273689288039
    vertex 3674.5327452937163 60.05771388885306 35.53491701184748
    vertex 3673.446049180242 45.45113485681931 35.54273621017857
  endloop
endfacet
facet normal -1.553188240439314e-05 -9.027979733360733e-06 -0.9999999998386282
  outer loop
    vertex 3673.446049180242 45.45113485681931 35.54273621017857
    vertex 3674.5327452937163 60.05771388885306 35.53491701184748
    vertex 3673.6854876740163 45.6111225411855 35.54273551941123
  endloop
endfacet
facet normal -1.553188240439314e-05 -9.027979733360733e-06 -0.9999999998386282
  outer loop
    vertex 3673.6854876740163 45.6111225411855 35.54273551941123
    vertex 3674.5327452937163 60.05771388885306 35.53491701184748
    vertex 3673.901995155044 45.8009945035955 35.54273483239357
  endloop
endfacet
facet normal -1.553188240439314e-05 -9.027979733360733e-06 -0.9999999998386282
  outer loop
    vertex 3673.901995155044 45.8009945035955 35.54273483239357
    vertex 3674.5327452937163 60.05771388885306 35.53491701184748
    vertex 3674.0918671202967 46.017501982135954 35.54273416088353
  endloop
endfacet
facet normal -1.553188240439314e-05 -9.027979733360733e-06 -0.9999999998386282
  outer loop
    vertex 3674.0918671202967 46.017501982135954 35.54273416088353
    vertex 3674.5327452937163 60.05771388885306 35.53491701184748
    vertex 3674.2518548077974 46.25694047380602 35.54273351637351
  endloop
endfacet
facet normal -1.553188240439314e-05 -9.027979733360733e-06 -0.9999999998386282
  outer loop
    vertex 3674.2518548077974 46.25694047380602 35.54273351637351
    vertex 3674.5327452937163 60.05771388885306 35.53491701184748
    vertex 3674.3792207838696 46.51521311965407 35.542732909892635
  endloop
endfacet
facet normal -1.553188240439314e-05 -9.027979733360733e-06 -0.9999999998386282
  outer loop
    vertex 3674.3792207838696 46.51521311965407 35.542732909892635
    vertex 3674.5327452937163 60.05771388885306 35.53491701184748
    vertex 3674.471785781341 46.7879008030899 35.54273235181412
  endloop
endfacet
facet normal -1.553188240439314e-05 -9.027979733360733e-06 -0.9999999998386282
  outer loop
    vertex 3674.471785781341 46.7879008030899 35.54273235181412
    vertex 3674.5327452937163 60.05771388885306 35.53491701184748
    vertex 3674.5324639779733 47.09295068686834 35.54273185168589
  endloop
endfacet
facet normal 0.5000000056770719 0.8660254005067796 -1.2275093302926976e-09
  outer loop
    vertex 3599.832668735592 46.167693920341605 36.14084182948029
    vertex 3600.171785736312 45.97190463119324 42.84084168650894
    vertex 3600.1717857292674 45.97190462978852 36.14084182946562
  endloop
endfacet
facet normal 0.5000000056770719 0.8660254005067796 -1.2275093302926976e-09
  outer loop
    vertex 3600.171785736312 45.97190463119324 42.84084168650894
    vertex 3599.832668735592 46.167693920341605 36.14084182948029
    vertex 3599.832668742638 46.16769392174623 42.840841686526424
  endloop
endfacet
facet normal -0.6593458101713169 0.751839811801377 1.020239198679107e-09
  outer loop
    vertex 3673.258495721996 46.16769366201456 42.84084169070265
    vertex 3673.4060137343645 46.29706349225149 36.140841835722604
    vertex 3673.2584957120985 46.16769366057255 36.14084183571187
  endloop
endfacet
facet normal -0.6593458101713169 0.751839811801377 1.020239198679107e-09
  outer loop
    vertex 3673.4060137343645 46.29706349225149 36.140841835722604
    vertex 3673.258495721996 46.16769366201456 42.84084169070265
    vertex 3673.406013744259 46.29706349369342 42.84084169071529
  endloop
endfacet
facet normal -0.9659258365033032 -0.258819006982474 1.9244712629040706e-09
  outer loop
    vertex 3673.8329784562916 88.15351297141825 42.840841694889086
    vertex 3673.7316304689143 88.53174883085833 36.14084183735575
    vertex 3673.8329784463963 88.15351296997649 36.14084183989608
  endloop
endfacet
facet normal -0.9659258365033032 -0.258819006982474 1.9244712629040706e-09
  outer loop
    vertex 3673.7316304689143 88.53174883085833 36.14084183735575
    vertex 3673.8329784562916 88.15351297141825 42.840841694889086
    vertex 3673.7316304788105 88.53174883230012 42.84084169234864
  endloop
endfacet
facet normal -0.44228868433930574 0.8968727444322333 5.603312709656638e-10
  outer loop
    vertex 3672.9193787415065 45.97190438500491 42.84084169067385
    vertex 3673.0953535754516 46.05868557146734 36.140841835694246
    vertex 3672.9193787316076 45.971904383562894 36.14084183568132
  endloop
endfacet
facet normal -0.44228868433930574 0.8968727444322333 5.603312709656638e-10
  outer loop
    vertex 3673.0953535754516 46.05868557146734 36.140841835694246
    vertex 3672.9193787415065 45.97190438500491 42.84084169067385
    vertex 3673.0953535853496 46.05868557290926 42.84084169068443
  endloop
endfacet
facet normal 0.25881905143444656 0.965925824592434 -7.989814955478014e-10
  outer loop
    vertex 3600.1717857292674 45.97190462978852 36.14084182946562
    vertex 3600.5500215958664 45.87055663542004 42.840841686508895
    vertex 3600.5500215888214 45.87055663401539 36.140841829465145
  endloop
endfacet
facet normal 0.25881905143444656 0.965925824592434 -7.989814955478014e-10
  outer loop
    vertex 3600.5500215958664 45.87055663542004 42.840841686508895
    vertex 3600.1717857292674 45.97190462978852 36.14084182946562
    vertex 3600.171785736312 45.97190463119324 42.84084168650894
  endloop
endfacet
facet normal 0.866025407062143 0.49999999432284975 -1.8101051074692624e-09
  outer loop
    vertex 3599.3599915843665 46.78369878532947 36.140841829533684
    vertex 3599.5557808775243 46.44458179048511 42.84084168654916
    vertex 3599.555780870479 46.44458178908051 36.14084182950131
  endloop
endfacet
facet normal 0.866025407062143 0.49999999432284975 -1.8101051074692624e-09
  outer loop
    vertex 3599.5557808775243 46.44458179048511 42.84084168654916
    vertex 3599.3599915843665 46.78369878532947 36.140841829533684
    vertex 3599.3599915914115 46.783698786734 42.84084168657996
  endloop
endfacet
facet normal -0.5555702275693865 0.8314696159442632 7.971047710775281e-10
  outer loop
    vertex 3673.0953535853496 46.05868557290926 42.84084169068443
    vertex 3673.2584957120985 46.16769366057255 36.14084183571187
    vertex 3673.0953535754516 46.05868557146734 36.140841835694246
  endloop
endfacet
facet normal -0.5555702275693865 0.8314696159442632 7.971047710775281e-10
  outer loop
    vertex 3673.2584957120985 46.16769366057255 36.14084183571187
    vertex 3673.0953535853496 46.05868557290926 42.84084169068443
    vertex 3673.258495721996 46.16769366201456 42.84084169070265
  endloop
endfacet
facet normal 0.25881905140411865 0.9659258245376013 -1.1028466609636803e-05
  outer loop
    vertex 3672.6337018397103 90.14485879836272 35.54273191679544
    vertex 3673.1900847774896 89.99585690818165 42.842001871830284
    vertex 3673.189970866921 89.99580695783847 35.542731103728535
  endloop
endfacet
facet normal 0.25881905140411865 0.9659258245376013 -1.1028466609636803e-05
  outer loop
    vertex 3673.1900847774896 89.99585690818165 42.842001871830284
    vertex 3672.6337018397103 90.14485879836272 35.54273191679544
    vertex 3672.6338157502782 90.1449087487059 42.842002684897196
  endloop
endfacet
facet normal 0.8660254069354076 0.4999999942387592 -1.7424192402664267e-05
  outer loop
    vertex 3674.0959252184584 89.300643724591 35.54273045943958
    vertex 3674.383985168432 88.80195649729212 42.84200143918607
    vertex 3674.383871257863 88.80190654694894 35.542730671084314
  endloop
endfacet
facet normal 0.8660254069354076 0.4999999942387592 -1.7424192402664267e-05
  outer loop
    vertex 3674.383985168432 88.80195649729212 42.84200143918607
    vertex 3674.0959252184584 89.300643724591 35.54273045943958
    vertex 3674.096039129027 89.30069367493417 42.84200122754134
  endloop
endfacet
facet normal 0.7071067857200097 0.7071067764638872 -1.635746354846469e-05
  outer loop
    vertex 3673.688708030626 89.70786091775656 35.54273060663879
    vertex 3674.096039129027 89.30069367493417 42.84200122754134
    vertex 3674.0959252184584 89.300643724591 35.54273045943958
  endloop
endfacet
facet normal 0.7071067857200097 0.7071067764638872 -1.635746354846469e-05
  outer loop
    vertex 3674.096039129027 89.30069367493417 42.84200122754134
    vertex 3673.688708030626 89.70786091775656 35.54273060663879
    vertex 3673.688821941195 89.70791086809975 42.84200137474054
  endloop
endfacet
facet normal 1.2100730093265688e-05 6.985081446930365e-06 0.9999999999023905
  outer loop
    vertex 3598.7077539526895 46.51352665001341 42.84201157321501
    vertex 3598.5587024088836 88.24568774154618 42.842010150335014
    vertex 3598.558702138953 47.06979567963841 42.84201101203664
  endloop
endfacet
facet normal 1.2100730093265688e-05 6.985081446930365e-06 0.9999999999023905
  outer loop
    vertex 3598.5587024088836 88.24568774154618 42.842010150335014
    vertex 3598.7077539526895 46.51352665001341 42.84201157321501
    vertex 3598.7077542490965 88.80195676762449 42.84200903657004
  endloop
endfacet
facet normal 1.2100730093265688e-05 6.985081446930365e-06 0.9999999999023905
  outer loop
    vertex 3598.7077542490965 88.80195676762449 42.84200903657004
    vertex 3598.7077539526895 46.51352665001341 42.84201157321501
    vertex 3598.9956999920923 46.01478947237379 42.84201178485908
  endloop
endfacet
facet normal 1.2100730093265688e-05 6.985081446930365e-06 0.9999999999023905
  outer loop
    vertex 3598.7077542490965 88.80195676762449 42.84200903657004
    vertex 3598.9956999920923 46.01478947237379 42.84201178485908
    vertex 3598.9957002891733 89.30069393131912 42.84200775031161
  endloop
endfacet
facet normal 1.2100730093265688e-05 6.985081446930365e-06 0.9999999999023905
  outer loop
    vertex 3598.9957002891733 89.30069393131912 42.84200775031161
    vertex 3598.9956999920923 46.01478947237379 42.84201178485908
    vertex 3599.2586436139377 47.161934647615986 42.84084168403795
  endloop
endfacet
facet normal 1.2100730093265688e-05 6.985081446930365e-06 0.9999999999023905
  outer loop
    vertex 3599.2586436139377 47.161934647615986 42.84084168403795
    vertex 3598.9956999920923 46.01478947237379 42.84201178485908
    vertex 3599.40291717992 45.60757227920816 42.84201163766697
  endloop
endfacet
facet normal 1.2100730093265688e-05 6.985081446930365e-06 0.9999999999023905
  outer loop
    vertex 3599.2586436139377 47.161934647615986 42.84084168403795
    vertex 3599.40291717992 45.60757227920816 42.84201163766697
    vertex 3599.3599915914115 46.783698786734 42.84084168657996
  endloop
endfacet
facet normal 1.2100730093265688e-05 6.985081446930365e-06 0.9999999999023905
  outer loop
    vertex 3599.3599915914115 46.783698786734 42.84084168657996
    vertex 3599.40291717992 45.60757227920816 42.84201163766697
    vertex 3599.5557808775243 46.44458179048511 42.84084168654916
  endloop
endfacet
facet normal 1.2100730093265688e-05 6.985081446930365e-06 0.9999999999023905
  outer loop
    vertex 3599.5557808775243 46.44458179048511 42.84084168654916
    vertex 3599.40291717992 45.60757227920816 42.84201163766697
    vertex 3599.9016543436323 45.319626239125654 42.84201114056803
  endloop
endfacet
facet normal 1.2100730093265688e-05 6.985081446930365e-06 0.9999999999023905
  outer loop
    vertex 3599.5557808775243 46.44458179048511 42.84084168654916
    vertex 3599.9016543436323 45.319626239125654 42.84201114056803
    vertex 3599.832668742638 46.16769392174623 42.840841686526424
  endloop
endfacet
facet normal 1.2100730093265688e-05 6.985081446930365e-06 0.9999999999023905
  outer loop
    vertex 3599.832668742638 46.16769392174623 42.840841686526424
    vertex 3599.9016543436323 45.319626239125654 42.84201114056803
    vertex 3600.171785736312 45.97190463119324 42.84084168650894
  endloop
endfacet
facet normal 1.2100730093265688e-05 6.985081446930365e-06 0.9999999999023905
  outer loop
    vertex 3600.171785736312 45.97190463119324 42.84084168650894
    vertex 3599.9016543436323 45.319626239125654 42.84201114056803
    vertex 3600.4579233708378 45.170574398602504 42.842010327507325
  endloop
endfacet
facet normal 1.2100730093265688e-05 6.985081446930365e-06 0.9999999999023905
  outer loop
    vertex 3600.171785736312 45.97190463119324 42.84084168650894
    vertex 3600.4579233708378 45.170574398602504 42.842010327507325
    vertex 3600.5500215958664 45.87055663542004 42.840841686508895
  endloop
endfacet
facet normal 1.2100730093265688e-05 6.985081446930365e-06 0.9999999999023905
  outer loop
    vertex 3600.5500215958664 45.87055663542004 42.840841686508895
    vertex 3600.4579233708378 45.170574398602504 42.842010327507325
    vertex 3672.610145401273 45.170574161515574 42.8420092566771
  endloop
endfacet
facet normal 1.2100730093265688e-05 6.985081446930365e-06 0.9999999999023905
  outer loop
    vertex 3600.5500215958664 45.87055663542004 42.840841686508895
    vertex 3672.610145401273 45.170574161515574 42.8420092566771
    vertex 3672.541142898194 45.8705563988998 42.84084169066056
  endloop
endfacet
facet normal 1.2100730093265688e-05 6.985081446930365e-06 0.9999999999023905
  outer loop
    vertex 3672.541142898194 45.8705563988998 42.84084169066056
    vertex 3672.610145401273 45.170574161515574 42.8420092566771
    vertex 3672.7335821688266 45.90883494848677 42.84084169066778
  endloop
endfacet
facet normal 1.2100730093265688e-05 6.985081446930365e-06 0.9999999999023905
  outer loop
    vertex 3672.7335821688266 45.90883494848677 42.84084169066778
    vertex 3672.610145401273 45.170574161515574 42.8420092566771
    vertex 3672.9152027586615 45.231253840581715 42.84200832393781
  endloop
endfacet
facet normal 1.2100730093265688e-05 6.985081446930365e-06 0.9999999999023905
  outer loop
    vertex 3672.7335821688266 45.90883494848677 42.84084169066778
    vertex 3672.9152027586615 45.231253840581715 42.84200832393781
    vertex 3672.9193787415065 45.97190438500491 42.84084169067385
  endloop
endfacet
facet normal 1.2100730093265688e-05 6.985081446930365e-06 0.9999999999023905
  outer loop
    vertex 3672.9193787415065 45.97190438500491 42.84084169067385
    vertex 3672.9152027586615 45.231253840581715 42.84200832393781
    vertex 3673.1878904433 45.323818834479674 42.84200766098214
  endloop
endfacet
facet normal 1.2100730093265688e-05 6.985081446930365e-06 0.9999999999023905
  outer loop
    vertex 3672.9193787415065 45.97190438500491 42.84084169067385
    vertex 3673.1878904433 45.323818834479674 42.84200766098214
    vertex 3673.0953535853496 46.05868557290926 42.84084169068443
  endloop
endfacet
facet normal 1.2100730093265688e-05 6.985081446930365e-06 0.9999999999023905
  outer loop
    vertex 3673.0953535853496 46.05868557290926 42.84084169068443
    vertex 3673.1878904433 45.323818834479674 42.84200766098214
    vertex 3673.258495721996 46.16769366201456 42.84084169070265
  endloop
endfacet
facet normal 1.2100730093265688e-05 6.985081446930365e-06 0.9999999999023905
  outer loop
    vertex 3673.258495721996 46.16769366201456 42.84084169070265
    vertex 3673.1878904433 45.323818834479674 42.84200766098214
    vertex 3673.446163090811 45.45118480716251 42.842006978280324
  endloop
endfacet
facet normal 1.2100730093265688e-05 6.985081446930365e-06 0.9999999999023905
  outer loop
    vertex 3673.258495721996 46.16769366201456 42.84084169070265
    vertex 3673.446163090811 45.45118480716251 42.842006978280324
    vertex 3673.406013744259 46.29706349369342 42.84084169071529
  endloop
endfacet
facet normal 1.2100730093265688e-05 6.985081446930365e-06 0.9999999999023905
  outer loop
    vertex 3673.406013744259 46.29706349369342 42.84084169071529
    vertex 3673.446163090811 45.45118480716251 42.842006978280324
    vertex 3673.535383577869 46.444581514257536 42.84084169073544
  endloop
endfacet
facet normal 1.2100730093265688e-05 6.985081446930365e-06 0.9999999999023905
  outer loop
    vertex 3673.535383577869 46.444581514257536 42.84084169073544
    vertex 3673.446163090811 45.45118480716251 42.842006978280324
    vertex 3673.685601584584 45.611172491528706 42.84200628751298
  endloop
endfacet
facet normal 1.2100730093265688e-05 6.985081446930365e-06 0.9999999999023905
  outer loop
    vertex 3673.535383577869 46.444581514257536 42.84084169073544
    vertex 3673.685601584584 45.611172491528706 42.84200628751298
    vertex 3673.6443916691005 46.60772364947554 42.840841690757905
  endloop
endfacet
facet normal 1.2100730093265688e-05 6.985081446930365e-06 0.9999999999023905
  outer loop
    vertex 3673.6443916691005 46.60772364947554 42.840841690757905
    vertex 3673.685601584584 45.611172491528706 42.84200628751298
    vertex 3673.7311728593195 46.783698492182374 42.840841690774624
  endloop
endfacet
facet normal 1.2100730093265688e-05 6.985081446930365e-06 0.9999999999023905
  outer loop
    vertex 3673.7311728593195 46.783698492182374 42.840841690774624
    vertex 3673.685601584584 45.611172491528706 42.84200628751298
    vertex 3673.9021090656124 45.8010444539387 42.84200560049532
  endloop
endfacet
facet normal 1.2100730093265688e-05 6.985081446930365e-06 0.9999999999023905
  outer loop
    vertex 3673.7311728593195 46.783698492182374 42.840841690774624
    vertex 3673.9021090656124 45.8010444539387 42.84200560049532
    vertex 3673.7942422982774 46.96949506402965 42.840841690793845
  endloop
endfacet
facet normal 1.2100730093265688e-05 6.985081446930365e-06 0.9999999999023905
  outer loop
    vertex 3673.7942422982774 46.96949506402965 42.840841690793845
    vertex 3673.9021090656124 45.8010444539387 42.84200560049532
    vertex 3673.8325208503807 47.16193433416074 42.84084169081209
  endloop
endfacet
facet normal 1.2100730093265688e-05 6.985081446930365e-06 0.9999999999023905
  outer loop
    vertex 3673.8325208503807 47.16193433416074 42.84084169081209
    vertex 3673.9021090656124 45.8010444539387 42.84200560049532
    vertex 3673.8329784562916 88.15351297141825 42.840841694889086
  endloop
endfacet
facet normal 1.2100730093265688e-05 6.985081446930365e-06 0.9999999999023905
  outer loop
    vertex 3598.9957002891733 89.30069393131912 42.84200775031161
    vertex 3599.258643882656 88.15351322427615 42.8408416881144
    vertex 3599.402917482308 89.7079111191234 42.842006379285166
  endloop
endfacet
facet normal 1.2100730093265688e-05 6.985081446930365e-06 0.9999999999023905
  outer loop
    vertex 3599.258643882656 88.15351322427615 42.8408416881144
    vertex 3598.9957002891733 89.30069393131912 42.84200775031161
    vertex 3599.2586436139377 47.161934647615986 42.84084168403795
  endloop
endfacet
facet normal 1.2100730093265688e-05 6.985081446930365e-06 0.9999999999023905
  outer loop
    vertex 3599.402917482308 89.7079111191234 42.842006379285166
    vertex 3599.258643882656 88.15351322427615 42.8408416881144
    vertex 3599.3599918784234 88.53174908382945 42.840841688154825
  endloop
endfacet
facet normal 1.2100730093265688e-05 6.985081446930365e-06 0.9999999999023905
  outer loop
    vertex 3599.402917482308 89.7079111191234 42.842006379285166
    vertex 3599.3599918784234 88.53174908382945 42.840841688154825
    vertex 3599.555781168974 88.87086607751142 42.84084168819508
  endloop
endfacet
facet normal 1.2100730093265688e-05 6.985081446930365e-06 0.9999999999023905
  outer loop
    vertex 3599.402917482308 89.7079111191234 42.842006379285166
    vertex 3599.555781168974 88.87086607751142 42.84084168819508
    vertex 3599.9016546470534 89.99585715108138 42.84200501581653
  endloop
endfacet
facet normal 1.2100730093265688e-05 6.985081446930365e-06 0.9999999999023905
  outer loop
    vertex 3599.9016546470534 89.99585715108138 42.84200501581653
    vertex 3599.555781168974 88.87086607751142 42.84084168819508
    vertex 3599.832669037719 89.14775394262013 42.840841688220316
  endloop
endfacet
facet normal 1.2100730093265688e-05 6.985081446930365e-06 0.9999999999023905
  outer loop
    vertex 3599.9016546470534 89.99585715108138 42.84200501581653
    vertex 3599.832669037719 89.14775394262013 42.840841688220316
    vertex 3600.1717860339677 89.34354322872728 42.84084168825039
  endloop
endfacet
facet normal 1.2100730093265688e-05 6.985081446930365e-06 0.9999999999023905
  outer loop
    vertex 3599.9016546470534 89.99585715108138 42.84200501581653
    vertex 3600.1717860339677 89.34354322872728 42.84084168825039
    vertex 3600.45792366019 90.14490898527428 42.84200375795428
  endloop
endfacet
facet normal 1.2100730093265688e-05 6.985081446930365e-06 0.9999999999023905
  outer loop
    vertex 3600.45792366019 90.14490898527428 42.84200375795428
    vertex 3600.1717860339677 89.34354322872728 42.84084168825039
    vertex 3600.5500218815087 89.44489121954126 42.84084169084304
  endloop
endfacet
facet normal 1.2100730093265688e-05 6.985081446930365e-06 0.9999999999023905
  outer loop
    vertex 3600.45792366019 90.14490898527428 42.84200375795428
    vertex 3600.5500218815087 89.44489121954126 42.84084169084304
    vertex 3672.6338157502782 90.1449087487059 42.842002684897196
  endloop
endfacet
facet normal 1.2100730093265688e-05 6.985081446930365e-06 0.9999999999023905
  outer loop
    vertex 3672.6338157502782 90.1449087487059 42.842002684897196
    vertex 3600.5500218815087 89.44489121954126 42.84084169084304
    vertex 3672.541600474366 89.44489098361451 42.84084169241264
  endloop
endfacet
facet normal 1.2100730093265688e-05 6.985081446930365e-06 0.9999999999023905
  outer loop
    vertex 3672.6338157502782 90.1449087487059 42.842002684897196
    vertex 3672.541600474366 89.44489098361451 42.84084169241264
    vertex 3672.919836333917 89.34354298784135 42.84084169241528
  endloop
endfacet
facet normal 1.2100730093265688e-05 6.985081446930365e-06 0.9999999999023905
  outer loop
    vertex 3672.6338157502782 90.1449087487059 42.842002684897196
    vertex 3672.919836333917 89.34354298784135 42.84084169241528
    vertex 3673.1900847774896 89.99585690818165 42.842001871830284
  endloop
endfacet
facet normal 1.2100730093265688e-05 6.985081446930365e-06 0.9999999999023905
  outer loop
    vertex 3673.1900847774896 89.99585690818165 42.842001871830284
    vertex 3672.919836333917 89.34354298784135 42.84084169241528
    vertex 3673.2589533275964 89.14775369728801 42.8408416924019
  endloop
endfacet
facet normal 1.2100730093265688e-05 6.985081446930365e-06 0.9999999999023905
  outer loop
    vertex 3673.1900847774896 89.99585690818165 42.842001871830284
    vertex 3673.2589533275964 89.14775369728801 42.8408416924019
    vertex 3673.688821941195 89.70791086809975 42.84200137474054
  endloop
endfacet
facet normal 1.2100730093265688e-05 6.985081446930365e-06 0.9999999999023905
  outer loop
    vertex 3673.688821941195 89.70791086809975 42.84200137474054
    vertex 3673.2589533275964 89.14775369728801 42.8408416924019
    vertex 3673.535841192703 88.87086582854926 42.84084169238288
  endloop
endfacet
facet normal 1.2100730093265688e-05 6.985081446930365e-06 0.9999999999023905
  outer loop
    vertex 3673.688821941195 89.70791086809975 42.84200137474054
    vertex 3673.535841192703 88.87086582854926 42.84084169238288
    vertex 3673.7316304788105 88.53174883230012 42.84084169234864
  endloop
endfacet
facet normal 1.2100730093265688e-05 6.985081446930365e-06 0.9999999999023905
  outer loop
    vertex 3673.688821941195 89.70791086809975 42.84200137474054
    vertex 3673.7316304788105 88.53174883230012 42.84084169234864
    vertex 3674.096039129027 89.30069367493417 42.84200122754134
  endloop
endfacet
facet normal 1.2100730093265688e-05 6.985081446930365e-06 0.9999999999023905
  outer loop
    vertex 3674.096039129027 89.30069367493417 42.84200122754134
    vertex 3673.7316304788105 88.53174883230012 42.84084169234864
    vertex 3673.8329784562916 88.15351297141825 42.840841694889086
  endloop
endfacet
facet normal 1.2100730093265688e-05 6.985081446930365e-06 0.9999999999023905
  outer loop
    vertex 3674.096039129027 89.30069367493417 42.84200122754134
    vertex 3673.8329784562916 88.15351297141825 42.840841694889086
    vertex 3673.9021090656124 45.8010444539387 42.84200560049532
  endloop
endfacet
facet normal 1.2100730093265688e-05 6.985081446930365e-06 0.9999999999023905
  outer loop
    vertex 3674.096039129027 89.30069367493417 42.84200122754134
    vertex 3673.9021090656124 45.8010444539387 42.84200560049532
    vertex 3674.0919810308656 46.01755193247916 42.84200492898529
  endloop
endfacet
facet normal 1.2100730093265688e-05 6.985081446930365e-06 0.9999999999023905
  outer loop
    vertex 3674.096039129027 89.30069367493417 42.84200122754134
    vertex 3674.0919810308656 46.01755193247916 42.84200492898529
    vertex 3674.2519687183662 46.25699042414922 42.842004284475266
  endloop
endfacet
facet normal 1.2100730093265688e-05 6.985081446930365e-06 0.9999999999023905
  outer loop
    vertex 3674.096039129027 89.30069367493417 42.84200122754134
    vertex 3674.2519687183662 46.25699042414922 42.842004284475266
    vertex 3674.383985168432 88.80195649729212 42.84200143918607
  endloop
endfacet
facet normal 1.2100730093265688e-05 6.985081446930365e-06 0.9999999999023905
  outer loop
    vertex 3674.383985168432 88.80195649729212 42.84200143918607
    vertex 3674.2519687183662 46.25699042414922 42.842004284475266
    vertex 3674.3793346944385 46.515263069997275 42.84200367799439
  endloop
endfacet
facet normal 1.2100730093265688e-05 6.985081446930365e-06 0.9999999999023905
  outer loop
    vertex 3674.383985168432 88.80195649729212 42.84200143918607
    vertex 3674.3793346944385 46.515263069997275 42.84200367799439
    vertex 3674.47189969191 46.7879507534331 42.84200311991587
  endloop
endfacet
facet normal 1.2100730093265688e-05 6.985081446930365e-06 0.9999999999023905
  outer loop
    vertex 3674.383985168432 88.80195649729212 42.84200143918607
    vertex 3674.47189969191 46.7879507534331 42.84200311991587
    vertex 3674.533037901748 88.24568381590134 42.84202584105747
  endloop
endfacet
facet normal 1.2100730093265688e-05 6.985081446930365e-06 0.9999999999023905
  outer loop
    vertex 3674.533037901748 88.24568381590134 42.84202584105747
    vertex 3674.47189969191 46.7879507534331 42.84200311991587
    vertex 3674.5325778885426 47.09300063721154 42.84200261978764
  endloop
endfacet
facet normal 3.2775588892183117e-09 0.9999999999745861 -7.129360807137935e-06
  outer loop
    vertex 3600.457809749621 90.1448590349311 35.54273298985253
    vertex 3672.6338157502782 90.1449087487059 42.842002684897196
    vertex 3672.6337018397103 90.14485879836272 35.54273191679544
  endloop
endfacet
facet normal 3.2775588892183117e-09 0.9999999999745861 -7.129360807137935e-06
  outer loop
    vertex 3672.6338157502782 90.1449087487059 42.842002684897196
    vertex 3600.457809749621 90.1448590349311 35.54273298985253
    vertex 3600.45792366019 90.14490898527428 42.84200375795428
  endloop
endfacet
facet normal 0.9659258621193126 0.25881891080377445 -1.7303490976223673e-05
  outer loop
    vertex 3674.383871257863 88.80190654694894 35.542730671084314
    vertex 3674.533037901748 88.24568381590134 42.84202584105747
    vertex 3674.53292399118 88.24563386555816 35.54275507295572
  endloop
endfacet
facet normal 0.9659258621193126 0.25881891080377445 -1.7303490976223673e-05
  outer loop
    vertex 3674.533037901748 88.24568381590134 42.84202584105747
    vertex 3674.383871257863 88.80190654694894 35.542730671084314
    vertex 3674.383985168432 88.80195649729212 42.84200143918607
  endloop
endfacet
facet normal 0.5000000056194551 0.8660254004240211 -1.417600058563607e-05
  outer loop
    vertex 3673.189970866921 89.99580695783847 35.542731103728535
    vertex 3673.688821941195 89.70791086809975 42.84200137474054
    vertex 3673.688708030626 89.70786091775656 35.54273060663879
  endloop
endfacet
facet normal 0.5000000056194551 0.8660254004240211 -1.417600058563607e-05
  outer loop
    vertex 3673.688821941195 89.70791086809975 42.84200137474054
    vertex 3673.189970866921 89.99580695783847 35.542731103728535
    vertex 3673.1900847774896 89.99585690818165 42.842001871830284
  endloop
endfacet
facet normal -0.4999999943143425 0.8660254070651262 1.8275853523659022e-06
  outer loop
    vertex 3599.40280357174 89.70786116878021 35.54273561118342
    vertex 3599.9016546470534 89.99585715108138 42.84200501581653
    vertex 3599.9015407364845 89.9958072007382 35.54273424771478
  endloop
endfacet
facet normal -0.4999999943143425 0.8660254070651262 1.8275853523659022e-06
  outer loop
    vertex 3599.9016546470534 89.99585715108138 42.84200501581653
    vertex 3599.40280357174 89.70786116878021 35.54273561118342
    vertex 3599.402917482308 89.7079111191234 42.842006379285166
  endloop
endfacet
facet normal -0.8660254004464992 0.5000000056754969 1.029483154456334e-05
  outer loop
    vertex 3598.7077542490965 88.80195676762449 42.84200903657004
    vertex 3598.9955863786054 89.30064398097593 35.54273698220985
    vertex 3598.7076403385286 88.8019068172813 35.54273826846829
  endloop
endfacet
facet normal -0.8660254004464992 0.5000000056754969 1.029483154456334e-05
  outer loop
    vertex 3598.9955863786054 89.30064398097593 35.54273698220985
    vertex 3598.7077542490965 88.80195676762449 42.84200903657004
    vertex 3598.9957002891733 89.30069393131912 42.84200775031161
  endloop
endfacet
facet normal -0.9659258363613876 -0.258819006933693 1.7303491249349373e-05
  outer loop
    vertex 3598.7077539526895 46.51352665001341 42.84201157321501
    vertex 3598.558588228384 47.06974572929521 35.5427402439349
    vertex 3598.707640042121 46.51347669967021 35.54274080511326
  endloop
endfacet
facet normal -0.9659258363613876 -0.258819006933693 1.7303491249349373e-05
  outer loop
    vertex 3598.558588228384 47.06974572929521 35.5427402439349
    vertex 3598.7077539526895 46.51352665001341 42.84201157321501
    vertex 3598.558702138953 47.06979567963841 42.84201101203664
  endloop
endfacet
facet normal -0.5000000056156196 -0.8660254004262355 1.4176000585590474e-05
  outer loop
    vertex 3599.9016543436323 45.319626239125654 42.84201114056803
    vertex 3599.4028032693514 45.60752232886496 35.54274086956522
    vertex 3599.9015404330635 45.31957628878245 35.542740372466284
  endloop
endfacet
facet normal -0.5000000056156196 -0.8660254004262355 1.4176000585590474e-05
  outer loop
    vertex 3599.4028032693514 45.60752232886496 35.54274086956522
    vertex 3599.9016543436323 45.319626239125654 42.84201114056803
    vertex 3599.40291717992 45.60757227920816 42.84201163766697
  endloop
endfacet
facet normal -0.2588190472918566 0.9659258256985389 -2.7444007955916105e-06
  outer loop
    vertex 3599.9015407364845 89.9958072007382 35.54273424771478
    vertex 3600.45792366019 90.14490898527428 42.84200375795428
    vertex 3600.457809749621 90.1448590349311 35.54273298985253
  endloop
endfacet
facet normal -0.2588190472918566 0.9659258256985389 -2.7444007955916105e-06
  outer loop
    vertex 3600.45792366019 90.14490898527428 42.84200375795428
    vertex 3599.9015407364845 89.9958072007382 35.54273424771478
    vertex 3599.9016546470534 89.99585715108138 42.84200501581653
  endloop
endfacet
facet normal -0.7071067765343159 0.7071067858109362 6.275024731578683e-06
  outer loop
    vertex 3598.9955863786054 89.30064398097593 35.54273698220985
    vertex 3599.402917482308 89.7079111191234 42.842006379285166
    vertex 3599.40280357174 89.70786116878021 35.54273561118342
  endloop
endfacet
facet normal -0.7071067765343159 0.7071067858109362 6.275024731578683e-06
  outer loop
    vertex 3599.402917482308 89.7079111191234 42.842006379285166
    vertex 3598.9955863786054 89.30064398097593 35.54273698220985
    vertex 3598.9957002891733 89.30069393131912 42.84200775031161
  endloop
endfacet
facet normal -0.9659258244992471 0.2588190514242223 1.3613062601030411e-05
  outer loop
    vertex 3598.5587024088836 88.24568774154618 42.842010150335014
    vertex 3598.7076403385286 88.8019068172813 35.54273826846829
    vertex 3598.558588498315 88.24563779120301 35.542739382233265
  endloop
endfacet
facet normal -0.9659258244992471 0.2588190514242223 1.3613062601030411e-05
  outer loop
    vertex 3598.7076403385286 88.8019068172813 35.54273826846829
    vertex 3598.5587024088836 88.24568774154618 42.842010150335014
    vertex 3598.7077542490965 88.80195676762449 42.84200903657004
  endloop
endfacet
facet normal -0.25881905140453987 -0.9659258245374887 1.1028466609642743e-05
  outer loop
    vertex 3600.4579233708378 45.170574398602504 42.842010327507325
    vertex 3599.9015404330635 45.31957628878245 35.542740372466284
    vertex 3600.4578094602693 45.1705244482593 35.54273955940557
  endloop
endfacet
facet normal -0.25881905140453987 -0.9659258245374887 1.1028466609642743e-05
  outer loop
    vertex 3599.9015404330635 45.31957628878245 35.542740372466284
    vertex 3600.4579233708378 45.170574398602504 42.842010327507325
    vertex 3599.9016543436323 45.319626239125654 42.84201114056803
  endloop
endfacet
facet normal -0.707106785723506 -0.7071067764603909 1.635746354849572e-05
  outer loop
    vertex 3599.40291717992 45.60757227920816 42.84201163766697
    vertex 3598.9955860815244 46.01473952203059 35.542741016757326
    vertex 3599.4028032693514 45.60752232886496 35.54274086956522
  endloop
endfacet
facet normal -0.707106785723506 -0.7071067764603909 1.635746354849572e-05
  outer loop
    vertex 3598.9955860815244 46.01473952203059 35.542741016757326
    vertex 3599.40291717992 45.60757227920816 42.84201163766697
    vertex 3598.9956999920923 46.01478947237379 42.84201178485908
  endloop
endfacet
facet normal -0.8660254069359784 -0.49999999423777075 1.7424192402666354e-05
  outer loop
    vertex 3598.9956999920923 46.01478947237379 42.84201178485908
    vertex 3598.707640042121 46.51347669967021 35.54274080511326
    vertex 3598.9955860815244 46.01473952203059 35.542741016757326
  endloop
endfacet
facet normal -0.8660254069359784 -0.49999999423777075 1.7424192402666354e-05
  outer loop
    vertex 3598.707640042121 46.51347669967021 35.54274080511326
    vertex 3598.9956999920923 46.01478947237379 42.84201178485908
    vertex 3598.7077539526895 46.51352665001341 42.84201157321501
  endloop
endfacet
facet normal -0.9999999998719428 6.55589371616195e-09 1.6003585937619573e-05
  outer loop
    vertex 3598.558702138953 47.06979567963841 42.84201101203664
    vertex 3598.558588498315 88.24563779120301 35.542739382233265
    vertex 3598.558588228384 47.06974572929521 35.5427402439349
  endloop
endfacet
facet normal -0.9999999998719428 6.55589371616195e-09 1.6003585937619573e-05
  outer loop
    vertex 3598.558588498315 88.24563779120301 35.542739382233265
    vertex 3598.558702138953 47.06979567963841 42.84201101203664
    vertex 3598.5587024088836 88.24568774154618 42.842010150335014
  endloop
endfacet
facet normal 0.9469301273059797 -0.3214394714947655 -1.2862619762322e-05
  outer loop
    vertex 3674.471785781341 46.7879008030899 35.54273235181412
    vertex 3674.3793346944385 46.515263069997275 42.84200367799439
    vertex 3674.3792207838696 46.51521311965407 35.542732909892635
  endloop
endfacet
facet normal 0.9469301273059797 -0.3214394714947655 -1.2862619762322e-05
  outer loop
    vertex 3674.3793346944385 46.515263069997275 42.84200367799439
    vertex 3674.471785781341 46.7879008030899 35.54273235181412
    vertex 3674.47189969191 46.7879507534331 42.84200311991587
  endloop
endfacet
facet normal 0.8968727385682619 -0.44228869608845695 -1.1199944318328566e-05
  outer loop
    vertex 3674.3792207838696 46.51521311965407 35.542732909892635
    vertex 3674.2519687183662 46.25699042414922 42.842004284475266
    vertex 3674.2518548077974 46.25694047380602 35.54273351637351
  endloop
endfacet
facet normal 0.8968727385682619 -0.44228869608845695 -1.1199944318328566e-05
  outer loop
    vertex 3674.2519687183662 46.25699042414922 42.842004284475266
    vertex 3674.3792207838696 46.51521311965407 35.542732909892635
    vertex 3674.3793346944385 46.515263069997275 42.84200367799439
  endloop
endfacet
facet normal 0.8314696086120331 -0.5555702384642393 -9.345634721829184e-06
  outer loop
    vertex 3674.2518548077974 46.25694047380602 35.54273351637351
    vertex 3674.0919810308656 46.01755193247916 42.84200492898529
    vertex 3674.0918671202967 46.017501982135954 35.54273416088353
  endloop
endfacet
facet normal 0.8314696086120331 -0.5555702384642393 -9.345634721829184e-06
  outer loop
    vertex 3674.0919810308656 46.01755193247916 42.84200492898529
    vertex 3674.2518548077974 46.25694047380602 35.54273351637351
    vertex 3674.2519687183662 46.25699042414922 42.842004284475266
  endloop
endfacet
facet normal 0.7518398031242497 -0.6593458200249244 -7.331418724132286e-06
  outer loop
    vertex 3674.0918671202967 46.017501982135954 35.54273416088353
    vertex 3673.9021090656124 45.8010444539387 42.84200560049532
    vertex 3673.901995155044 45.8009945035955 35.54273483239357
  endloop
endfacet
facet normal 0.7518398031242497 -0.6593458200249244 -7.331418724132286e-06
  outer loop
    vertex 3673.9021090656124 45.8010444539387 42.84200560049532
    vertex 3674.0918671202967 46.017501982135954 35.54273416088353
    vertex 3674.0919810308656 46.01755193247916 42.84200492898529
  endloop
endfacet
facet normal 0.6593458101486357 -0.7518398118033421 -5.191760119274815e-06
  outer loop
    vertex 3673.9021090656124 45.8010444539387 42.84200560049532
    vertex 3673.6854876740163 45.6111225411855 35.54273551941123
    vertex 3673.901995155044 45.8009945035955 35.54273483239357
  endloop
endfacet
facet normal 0.6593458101486357 -0.7518398118033421 -5.191760119274815e-06
  outer loop
    vertex 3673.6854876740163 45.6111225411855 35.54273551941123
    vertex 3673.9021090656124 45.8010444539387 42.84200560049532
    vertex 3673.685601584584 45.611172491528706 42.84200628751298
  endloop
endfacet
facet normal 0.9807852790182078 -0.1950903284546343 -1.4305212215632855e-05
  outer loop
    vertex 3674.5324639779733 47.09295068686834 35.54273185168589
    vertex 3674.47189969191 46.7879507534331 42.84200311991587
    vertex 3674.471785781341 46.7879008030899 35.54273235181412
  endloop
endfacet
facet normal 0.9807852790182078 -0.1950903284546343 -1.4305212215632855e-05
  outer loop
    vertex 3674.47189969191 46.7879507534331 42.84200311991587
    vertex 3674.5324639779733 47.09295068686834 35.54273185168589
    vertex 3674.5325778885426 47.09300063721154 42.84200261978764
  endloop
endfacet
facet normal 0.9999999999088609 -1.1487940863603537e-05 -7.092624043809427e-06
  outer loop
    vertex 3674.5327452937163 60.05771388885306 35.53491701184748
    vertex 3674.5325778885426 47.09300063721154 42.84200261978764
    vertex 3674.5324639779733 47.09295068686834 35.54273185168589
  endloop
endfacet
facet normal 0.9999999999088609 -1.1487940863603537e-05 -7.092624043809427e-06
  outer loop
    vertex 3674.5325778885426 47.09300063721154 42.84200261978764
    vertex 3674.5327452937163 60.05771388885306 35.53491701184748
    vertex 3674.5334995668063 60.05875747712952 38.25558470938286
  endloop
endfacet
facet normal 0.9999999999088609 -1.1487940863603537e-05 -7.092624043809427e-06
  outer loop
    vertex 3674.5325778885426 47.09300063721154 42.84200261978764
    vertex 3674.5334995668063 60.05875747712952 38.25558470938286
    vertex 3674.533037901748 88.24568381590134 42.84202584105747
  endloop
endfacet
facet normal 0.9999999999088609 -1.1487940863603537e-05 -7.092624043809427e-06
  outer loop
    vertex 3674.533037901748 88.24568381590134 42.84202584105747
    vertex 3674.5334995668063 60.05875747712952 38.25558470938286
    vertex 3674.5336342700743 75.25728166547651 38.25565959270666
  endloop
endfacet
facet normal 0.9999999999088609 -1.1487940863603537e-05 -7.092624043809427e-06
  outer loop
    vertex 3674.533037901748 88.24568381590134 42.84202584105747
    vertex 3674.5336342700743 75.25728166547651 38.25565959270666
    vertex 3674.532915211725 75.25769968816273 35.5348909521107
  endloop
endfacet
facet normal 0.9999999999088609 -1.1487940863603537e-05 -7.092624043809427e-06
  outer loop
    vertex 3674.533037901748 88.24568381590134 42.84202584105747
    vertex 3674.532915211725 75.25769968816273 35.5348909521107
    vertex 3674.53292399118 88.24563386555816 35.54275507295572
  endloop
endfacet
facet normal 0.4422886843343493 -0.8968727444344167 -6.840756442800755e-07
  outer loop
    vertex 3673.446163090811 45.45118480716251 42.842006978280324
    vertex 3673.1877765327313 45.32376888413647 35.54273689288039
    vertex 3673.446049180242 45.45113485681931 35.54273621017857
  endloop
endfacet
facet normal 0.4422886843343493 -0.8968727444344167 -6.840756442800755e-07
  outer loop
    vertex 3673.1877765327313 45.32376888413647 35.54273689288039
    vertex 3673.446163090811 45.45118480716251 42.842006978280324
    vertex 3673.1878904433 45.323818834479674 42.84200766098214
  endloop
endfacet
facet normal 0.5555702275637441 -0.8314696159427529 -2.9632690595386746e-06
  outer loop
    vertex 3673.685601584584 45.611172491528706 42.84200628751298
    vertex 3673.446049180242 45.45113485681931 35.54273621017857
    vertex 3673.6854876740163 45.6111225411855 35.54273551941123
  endloop
endfacet
facet normal 0.5555702275637441 -0.8314696159427529 -2.9632690595386746e-06
  outer loop
    vertex 3673.446049180242 45.45113485681931 35.54273621017857
    vertex 3673.685601584584 45.611172491528706 42.84200628751298
    vertex 3673.446163090811 45.45118480716251 42.842006978280324
  endloop
endfacet
facet normal 0.19509031559735365 -0.980785281672368 3.870227455327814e-06
  outer loop
    vertex 3672.9152027586615 45.231253840581715 42.84200832393781
    vertex 3672.610031490704 45.17052421117237 35.54273848857535
    vertex 3672.9150888480926 45.23120389023851 35.542737555836055
  endloop
endfacet
facet normal 0.19509031559735365 -0.980785281672368 3.870227455327814e-06
  outer loop
    vertex 3672.610031490704 45.17052421117237 35.54273848857535
    vertex 3672.9152027586615 45.231253840581715 42.84200832393781
    vertex 3672.610145401273 45.170574161515574 42.8420092566771
  endloop
endfacet
facet normal -3.285821179560765e-09 -0.9999999999745861 7.129360807270162e-06
  outer loop
    vertex 3672.610145401273 45.170574161515574 42.8420092566771
    vertex 3600.4578094602693 45.1705244482593 35.54273955940557
    vertex 3672.610031490704 45.17052421117237 35.54273848857535
  endloop
endfacet
facet normal -3.285821179560765e-09 -0.9999999999745861 7.129360807270162e-06
  outer loop
    vertex 3600.4578094602693 45.1705244482593 35.54273955940557
    vertex 3672.610145401273 45.170574161515574 42.8420092566771
    vertex 3600.4579233708378 45.170574398602504 42.842010327507325
  endloop
endfacet
facet normal 0.3214394591032388 -0.9469301315983325 1.6068224946344002e-06
  outer loop
    vertex 3673.1878904433 45.323818834479674 42.84200766098214
    vertex 3672.9150888480926 45.23120389023851 35.542737555836055
    vertex 3673.1877765327313 45.32376888413647 35.54273689288039
  endloop
endfacet
facet normal 0.3214394591032388 -0.9469301315983325 1.6068224946344002e-06
  outer loop
    vertex 3672.9150888480926 45.23120389023851 35.542737555836055
    vertex 3673.1878904433 45.323818834479674 42.84200766098214
    vertex 3672.9152027586615 45.231253840581715 42.84200832393781
  endloop
endfacet
facet normal -0.32143945909570715 0.9469301316022527 3.139708666666241e-10
  outer loop
    vertex 3672.7335821688266 45.90883494848677 42.84084169066778
    vertex 3672.9193787316076 45.971904383562894 36.14084183568132
    vertex 3672.733582158931 45.90883494704473 36.14084183567313
  endloop
endfacet
facet normal -0.32143945909570715 0.9469301316022527 3.139708666666241e-10
  outer loop
    vertex 3672.9193787316076 45.971904383562894 36.14084183568132
    vertex 3672.7335821688266 45.90883494848677 42.84084169066778
    vertex 3672.9193787415065 45.97190438500491 42.84084169067385
  endloop
endfacet
facet normal -0.19509031558680456 0.9807852816821024 6.223820070427877e-11
  outer loop
    vertex 3672.541142898194 45.8705563988998 42.84084169066056
    vertex 3672.733582158931 45.90883494704473 36.14084183567313
    vertex 3672.541142888297 45.87055639745765 36.14084183566708
  endloop
endfacet
facet normal -0.19509031558680456 0.9807852816821024 6.223820070427877e-11
  outer loop
    vertex 3672.733582158931 45.90883494704473 36.14084183567313
    vertex 3672.541142898194 45.8705563988998 42.84084169066056
    vertex 3672.7335821688266 45.90883494848677 42.84084169066778
  endloop
endfacet
facet normal 0.25881904728809724 -0.965925825703445 -1.8849739477633243e-10
  outer loop
    vertex 3600.550021874466 89.44489121813666 36.1408418337991
    vertex 3600.1717860339677 89.34354322872728 42.84084168825039
    vertex 3600.1717860269255 89.34354322732251 36.140841831205385
  endloop
endfacet
facet normal 0.25881904728809724 -0.965925825703445 -1.8849739477633243e-10
  outer loop
    vertex 3600.1717860339677 89.34354322872728 42.84084168825039
    vertex 3600.550021874466 89.44489121813666 36.1408418337991
    vertex 3600.5500218815087 89.44489121954126 42.84084169084304
  endloop
endfacet
facet normal -0.2588190514344463 -0.965925824592434 7.989871403379922e-10
  outer loop
    vertex 3672.919836333917 89.34354298784135 42.84084169241528
    vertex 3672.541600464467 89.4448909821725 36.14084183742173
    vertex 3672.9198363240193 89.3435429863992 36.14084183742034
  endloop
endfacet
facet normal -0.2588190514344463 -0.965925824592434 7.989871403379922e-10
  outer loop
    vertex 3672.541600464467 89.4448909821725 36.14084183742173
    vertex 3672.919836333917 89.34354298784135 42.84084169241528
    vertex 3672.541600474366 89.44489098361451 42.84084169241264
  endloop
endfacet
facet normal -0.5000000056770721 -0.8660254005067795 1.2275092782509933e-09
  outer loop
    vertex 3673.2589533275964 89.14775369728801 42.8408416924019
    vertex 3672.9198363240193 89.3435429863992 36.14084183742034
    vertex 3673.258953317704 89.14775369584616 36.14084183740689
  endloop
endfacet
facet normal -0.5000000056770721 -0.8660254005067795 1.2275092782509933e-09
  outer loop
    vertex 3672.9198363240193 89.3435429863992 36.14084183742034
    vertex 3673.2589533275964 89.14775369728801 42.8408416924019
    vertex 3672.919836333917 89.34354298784135 42.84084169241528
  endloop
endfacet
facet normal 0.9659258245923826 -0.25881905143463774 -1.7608924318679442e-09
  outer loop
    vertex 3599.3599918713817 88.53174908242468 36.14084183110745
    vertex 3599.258643882656 88.15351322427615 42.8408416881144
    vertex 3599.258643875615 88.15351322287147 36.14084183106565
  endloop
endfacet
facet normal 0.9659258245923826 -0.25881905143463774 -1.7608924318679442e-09
  outer loop
    vertex 3599.258643882656 88.15351322427615 42.8408416881144
    vertex 3599.3599918713817 88.53174908242468 36.14084183110745
    vertex 3599.3599918784234 88.53174908382945 42.840841688154825
  endloop
endfacet
facet normal -3.277403565046488e-09 -1.0 2.124332163184274e-10
  outer loop
    vertex 3672.541600464467 89.4448909821725 36.14084183742173
    vertex 3600.5500218815087 89.44489121954126 42.84084169084304
    vertex 3600.550021874466 89.44489121813666 36.1408418337991
  endloop
endfacet
facet normal -3.277403565046488e-09 -1.0 2.124332163184274e-10
  outer loop
    vertex 3600.5500218815087 89.44489121954126 42.84084169084304
    vertex 3672.541600464467 89.4448909821725 36.14084183742173
    vertex 3672.541600474366 89.44489098361451 42.84084169241264
  endloop
endfacet
facet normal 1.0 -6.55532941282851e-09 -1.907683615243183e-09
  outer loop
    vertex 3599.258643875615 88.15351322287147 36.14084183106565
    vertex 3599.2586436139377 47.161934647615986 42.84084168403795
    vertex 3599.258643606894 47.161934646211314 36.14084182699179
  endloop
endfacet
facet normal 1.0 -6.55532941282851e-09 -1.907683615243183e-09
  outer loop
    vertex 3599.2586436139377 47.161934647615986 42.84084168403795
    vertex 3599.258643875615 88.15351322287147 36.14084183106565
    vertex 3599.258643882656 88.15351322427615 42.8408416881144
  endloop
endfacet
facet normal -0.8314696086607692 0.5555702384699052 1.410618170882838e-09
  outer loop
    vertex 3673.535383577869 46.444581514257536 42.84084169073544
    vertex 3673.6443916592075 46.607723648033584 36.140841835764476
    vertex 3673.5353835679753 46.44458151281544 36.140841835740446
  endloop
endfacet
facet normal -0.8314696086607692 0.5555702384699052 1.410618170882838e-09
  outer loop
    vertex 3673.6443916592075 46.607723648033584 36.140841835764476
    vertex 3673.535383577869 46.444581514257536 42.84084169073544
    vertex 3673.6443916691005 46.60772364947554 42.840841690757905
  endloop
endfacet
facet normal -0.946930127387841 0.321439471510963 1.7048675457487228e-09
  outer loop
    vertex 3673.7311728593195 46.783698492182374 42.840841690774624
    vertex 3673.7942422883784 46.9694950625875 36.140841835801695
    vertex 3673.7311728494205 46.783698490740285 36.14084183578103
  endloop
endfacet
facet normal -0.946930127387841 0.321439471510963 1.7048675457487228e-09
  outer loop
    vertex 3673.7942422883784 46.9694950625875 36.140841835801695
    vertex 3673.7311728593195 46.783698492182374 42.840841690774624
    vertex 3673.7942422982774 46.96949506402965 42.840841690793845
  endloop
endfacet
facet normal -0.9807852791244035 0.19509032844522578 1.8093793477391706e-09
  outer loop
    vertex 3673.7942422982774 46.96949506402965 42.840841690793845
    vertex 3673.8325208404804 47.161934332718644 36.14084183582135
    vertex 3673.7942422883784 46.9694950625875 36.140841835801695
  endloop
endfacet
facet normal -0.9807852791244035 0.19509032844522578 1.8093793477391706e-09
  outer loop
    vertex 3673.8325208404804 47.161934332718644 36.14084183582135
    vertex 3673.7942422982774 46.96949506402965 42.840841690793845
    vertex 3673.8325208503807 47.16193433416074 42.84084169081209
  endloop
endfacet
facet normal 0.8660254005068282 -0.500000005676988 -1.4941010650915132e-09
  outer loop
    vertex 3599.555781161937 88.8708660761067 36.14084183114698
    vertex 3599.3599918784234 88.53174908382945 42.840841688154825
    vertex 3599.3599918713817 88.53174908242468 36.14084183110745
  endloop
endfacet
facet normal 0.8660254005068282 -0.500000005676988 -1.4941010650915132e-09
  outer loop
    vertex 3599.3599918784234 88.53174908382945 42.840841688154825
    vertex 3599.555781161937 88.8708660761067 36.14084183114698
    vertex 3599.555781168974 88.87086607751142 42.84084168819508
  endloop
endfacet
facet normal 3.2856663779818e-09 1.0 -2.1243139808565474e-10
  outer loop
    vertex 3600.5500215958664 45.87055663542004 42.840841686508895
    vertex 3672.541142888297 45.87055639745765 36.14084183566708
    vertex 3600.5500215888214 45.87055663401539 36.140841829465145
  endloop
endfacet
facet normal 3.2856663779818e-09 1.0 -2.1243139808565474e-10
  outer loop
    vertex 3672.541142888297 45.87055639745765 36.14084183566708
    vertex 3600.5500215958664 45.87055663542004 42.840841686508895
    vertex 3672.541142898194 45.8705563988998 42.84084169066056
  endloop
endfacet
facet normal 0.4999999943229098 -0.8660254070621083 -6.801646364185121e-10
  outer loop
    vertex 3600.1717860269255 89.34354322732251 36.140841831205385
    vertex 3599.832669037719 89.14775394262013 42.840841688220316
    vertex 3599.8326690306762 89.14775394121527 36.140841831177774
  endloop
endfacet
facet normal 0.4999999943229098 -0.8660254070621083 -6.801646364185121e-10
  outer loop
    vertex 3599.832669037719 89.14775394262013 42.840841688220316
    vertex 3600.1717860269255 89.34354322732251 36.140841831205385
    vertex 3600.1717860339677 89.34354322872728 42.84084168825039
  endloop
endfacet
facet normal -0.8660254070621574 -0.4999999943228247 1.8101099091838435e-09
  outer loop
    vertex 3673.7316304788105 88.53174883230012 42.84084169234864
    vertex 3673.5358411828074 88.87086582710724 36.14084183738796
    vertex 3673.7316304689143 88.53174883085833 36.14084183735575
  endloop
endfacet
facet normal -0.8660254070621574 -0.4999999943228247 1.8101099091838435e-09
  outer loop
    vertex 3673.5358411828074 88.87086582710724 36.14084183738796
    vertex 3673.7316304788105 88.53174883230012 42.84084169234864
    vertex 3673.535841192703 88.87086582854926 42.84084169238288
  endloop
endfacet
facet normal -0.7071067858218945 -0.7071067765512006 1.5723891425012404e-09
  outer loop
    vertex 3673.535841192703 88.87086582854926 42.84084169238288
    vertex 3673.258953317704 89.14775369584616 36.14084183740689
    vertex 3673.5358411828074 88.87086582710724 36.14084183738796
  endloop
endfacet
facet normal -0.7071067858218945 -0.7071067765512006 1.5723891425012404e-09
  outer loop
    vertex 3673.258953317704 89.14775369584616 36.14084183740689
    vertex 3673.535841192703 88.87086582854926 42.84084169238288
    vertex 3673.2589533275964 89.14775369728801 42.8408416924019
  endloop
endfacet
facet normal 0.7071067765512575 -0.7071067858218375 -1.1254833384710672e-09
  outer loop
    vertex 3599.8326690306762 89.14775394121527 36.140841831177774
    vertex 3599.555781168974 88.87086607751142 42.84084168819508
    vertex 3599.555781161937 88.8708660761067 36.14084183114698
  endloop
endfacet
facet normal 0.7071067765512575 -0.7071067858218375 -1.1254833384710672e-09
  outer loop
    vertex 3599.555781168974 88.87086607751142 42.84084168819508
    vertex 3599.8326690306762 89.14775394121527 36.140841831177774
    vertex 3599.832669037719 89.14775394262013 42.840841688220316
  endloop
endfacet
facet normal -0.9999999999469849 1.0238484370347446e-05 -1.0972793004168323e-06
  outer loop
    vertex 3673.8329784562916 88.15351297141825 42.840841694889086
    vertex 3673.832737885668 60.05775099006552 38.240841690226894
    vertex 3673.8325208503807 47.16193433416074 42.84084169081209
  endloop
endfacet
facet normal -0.9999999999469849 1.0238484370347446e-05 -1.0972793004168323e-06
  outer loop
    vertex 3673.832737885668 60.05775099006552 38.240841690226894
    vertex 3673.8329784562916 88.15351297141825 42.840841694889086
    vertex 3673.832791262551 75.2577338671989 38.24084184133387
  endloop
endfacet
facet normal -0.9999999999469849 1.0238484370347446e-05 -1.0972793004168323e-06
  outer loop
    vertex 3673.832791262551 75.2577338671989 38.24084184133387
    vertex 3673.8329784562916 88.15351297141825 42.840841694889086
    vertex 3673.832788452867 75.2577338727882 36.140841841337405
  endloop
endfacet
facet normal -0.9999999999469849 1.0238484370347446e-05 -1.0972793004168323e-06
  outer loop
    vertex 3673.832788452867 75.2577338727882 36.140841841337405
    vertex 3673.8329784562916 88.15351297141825 42.840841694889086
    vertex 3673.8329784463963 88.15351296997649 36.14084183989608
  endloop
endfacet
facet normal -0.9999999999469849 1.0238484370347446e-05 -1.0972793004168323e-06
  outer loop
    vertex 3673.8325208503807 47.16193433416074 42.84084169081209
    vertex 3673.8327350759846 60.05775099565485 36.14084169023255
    vertex 3673.8325208404804 47.161934332718644 36.14084183582135
  endloop
endfacet
facet normal -0.9999999999469849 1.0238484370347446e-05 -1.0972793004168323e-06
  outer loop
    vertex 3673.8327350759846 60.05775099565485 36.14084169023255
    vertex 3673.8325208503807 47.16193433416074 42.84084169081209
    vertex 3673.832737885668 60.05775099006552 38.240841690226894
  endloop
endfacet
facet normal -0.8968727386334814 0.4422886960980114 1.5711840439802671e-09
  outer loop
    vertex 3673.6443916691005 46.60772364947554 42.840841690757905
    vertex 3673.7311728494205 46.783698490740285 36.14084183578103
    vertex 3673.6443916592075 46.607723648033584 36.140841835764476
  endloop
endfacet
facet normal -0.8968727386334814 0.4422886960980114 1.5711840439802671e-09
  outer loop
    vertex 3673.7311728494205 46.783698490740285 36.14084183578103
    vertex 3673.6443916691005 46.60772364947554 42.840841690757905
    vertex 3673.7311728593195 46.783698492182374 42.840841690774624
  endloop
endfacet
facet normal 0.707106785821909 0.707106776551186 -1.5723849236537468e-09
  outer loop
    vertex 3599.555780870479 46.44458178908051 36.14084182950131
    vertex 3599.832668742638 46.16769392174623 42.840841686526424
    vertex 3599.832668735592 46.167693920341605 36.14084182948029
  endloop
endfacet
facet normal 0.707106785821909 0.707106776551186 -1.5723849236537468e-09
  outer loop
    vertex 3599.832668742638 46.16769392174623 42.840841686526424
    vertex 3599.555780870479 46.44458178908051 36.14084182950131
    vertex 3599.5557808775243 46.44458179048511 42.84084168654916
  endloop
endfacet
facet normal 0.021085974774350463 2.3372329230657763e-06 -0.9997776661149983
  outer loop
    vertex 3673.832791262551 75.2577338671989 38.24084184133387
    vertex 3674.5334995668063 60.05875747712952 38.25558470938286
    vertex 3673.832737885668 60.05775099006552 38.240841690226894
  endloop
endfacet
facet normal 0.021085974774350463 2.3372329230657763e-06 -0.9997776661149983
  outer loop
    vertex 3674.5334995668063 60.05875747712952 38.25558470938286
    vertex 3673.832791262551 75.2577338671989 38.24084184133387
    vertex 3674.5336342700743 75.25728166547651 38.25565959270666
  endloop
endfacet
facet normal -6.148151021926366e-06 0.9999999811966899 -0.0001938267790813427
  outer loop
    vertex 3664.8828247656315 60.057736279003535 36.14084180342241
    vertex 3673.8327350759846 60.05775099565485 36.14084169023255
    vertex 3664.8828308285724 60.05773978206282 35.53865642481884
  endloop
endfacet
facet normal -6.148151021926366e-06 0.9999999811966899 -0.0001938267790813427
  outer loop
    vertex 3674.5327452937163 60.05771388885306 35.53491701184748
    vertex 3673.8327350759846 60.05775099565485 36.14084169023255
    vertex 3674.5334995668063 60.05875747712952 38.25558470938286
  endloop
endfacet
facet normal -6.148151021926366e-06 0.9999999811966899 -0.0001938267790813427
  outer loop
    vertex 3673.8327350759846 60.05775099565485 36.14084169023255
    vertex 3674.5327452937163 60.05771388885306 35.53491701184748
    vertex 3664.8828308285724 60.05773978206282 35.53865642481884
  endloop
endfacet
facet normal -6.148151021926366e-06 0.9999999811966899 -0.0001938267790813427
  outer loop
    vertex 3674.5334995668063 60.05875747712952 38.25558470938286
    vertex 3673.8327350759846 60.05775099565485 36.14084169023255
    vertex 3673.832737885668 60.05775099006552 38.240841690226894
  endloop
endfacet
facet normal -5.130736514537794e-06 -0.9999999975514517 -6.979091807915882e-05
  outer loop
    vertex 3674.532915211725 75.25769968816273 35.5348909521107
    vertex 3673.832788452867 75.2577338727882 36.140841841337405
    vertex 3664.8828308285724 75.25773485316348 35.53865642481884
  endloop
endfacet
facet normal -5.130736514537794e-06 -0.9999999975514517 -6.979091807915882e-05
  outer loop
    vertex 3673.832788452867 75.2577338727882 36.140841841337405
    vertex 3674.532915211725 75.25769968816273 35.5348909521107
    vertex 3674.5336342700743 75.25728166547651 38.25565959270666
  endloop
endfacet
facet normal -5.130736514537794e-06 -0.9999999975514517 -6.979091807915882e-05
  outer loop
    vertex 3664.8828308285724 75.25773485316348 35.53865642481884
    vertex 3673.832788452867 75.2577338727882 36.140841841337405
    vertex 3664.8828247656315 75.2577313501042 36.14084180342241
  endloop
endfacet
facet normal -5.130736514537794e-06 -0.9999999975514517 -6.979091807915882e-05
  outer loop
    vertex 3673.832788452867 75.2577338727882 36.140841841337405
    vertex 3674.5336342700743 75.25728166547651 38.25565959270666
    vertex 3673.832791262551 75.2577338671989 38.24084184133387
  endloop
endfacet
endsolid Nextion Case 1
